<svg width="56" height="23" viewBox="0 0 56 23" fill="none" xmlns="http://www.w3.org/2000/svg">
<g clip-path="url(#clip0_0_23)">
<path d="M5.96708 22.0909H0.00478745V0.158386H12.2691V5.89111H5.96708V9.44144H11.9051V15.1749H5.96708V22.0909Z" fill="#A0A1A8"/>
<path d="M31.8503 11.1139C31.8503 1.06772 22.8333 0.158386 19.0999 0.158386H13.0898V22.0701H19.0999L19.0907 16.3574V5.80054C22.7884 5.80054 25.9301 7.16561 25.9301 11.0789C25.9301 14.9916 22.7884 16.3566 19.0907 16.3566L19.0999 22.0694C23.7454 22.0701 31.8503 21.1808 31.8503 11.1139Z" fill="#A0A1A8"/>
<path d="M38.8456 0.109375H32.8833V22.0875H38.8456V0.109375Z" fill="#A0A1A8"/>
<path d="M51.0192 16.2859C48.1551 16.2859 45.7849 13.9537 45.7849 11.0938C45.7849 8.23384 48.1551 5.90095 51.0192 5.90095C53.6306 5.90095 54.996 7.28884 55.8952 9.11677V1.24729C55.8952 1.24729 53.2553 0.0640869 50.7951 0.0640869C45.331 0.0640869 39.4108 5.08646 39.4108 11.0938C39.4108 18.4484 45.0576 22.1228 50.7951 22.1228C53.2545 22.1228 55.8952 20.941 55.8952 20.941V13.1399C54.8189 14.9942 53.6164 16.2859 51.0192 16.2859Z" fill="#A0A1A8"/>
<path d="M51.0865 15.6441C53.5883 15.6441 55.6164 13.6175 55.6164 11.1174C55.6164 8.61737 53.5883 6.5907 51.0865 6.5907C48.5847 6.5907 46.5567 8.61737 46.5567 11.1174C46.5567 13.6175 48.5847 15.6441 51.0865 15.6441Z" fill="#A0A1A8"/>
</g>
<defs>
<clipPath id="clip0_0_23">
<rect width="56" height="22.1875" fill="white"/>
</clipPath>
</defs>
</svg>
