<svg width="248" height="60" viewBox="0 0 248 60" fill="none" xmlns="http://www.w3.org/2000/svg">
<g clip-path="url(#clip0_0_345)">
<g clip-path="url(#clip1_0_345)">
<path d="M29.8667 25.0271C22.0167 23.6722 14.0015 21.5201 14.0015 17.4552C14.0015 14.1076 17.8852 11.4774 22.843 11.4774C26.892 11.4774 30.5278 14.1873 31.6019 17.774H44.7402C44.7402 7.6516 34.7419 0 22.843 0C9.6221 0 1.19374 7.41249 1.19374 17.9334C1.19374 26.143 9.29158 30.6861 18.9594 32.8381C27.7183 34.8307 33.0066 36.0262 33.0066 40.8085C33.0066 45.6705 28.9577 48.4601 22.843 48.4601C17.5547 48.4601 13.8363 44.6343 13.2579 39.6926H0.367432C0.367432 50.5325 10.0353 59.9375 22.843 59.9375C36.8903 59.9375 45.8145 51.8077 45.8145 40.8085C45.8145 31.7223 37.9645 26.4618 29.8667 25.0271Z" fill="white"/>
<path d="M74.3589 14.3467C60.8074 14.3467 49.8175 24.5488 49.8175 37.1421C49.8175 49.7354 60.8074 59.9375 74.3589 59.9375C79.7299 59.9375 84.5225 57.3073 87.332 53.322V58.6622H98.9002V37.1421C98.9002 24.5488 87.9103 14.3467 74.3589 14.3467ZM74.6067 49.0977C67.7484 49.0977 62.2122 43.7575 62.2122 37.1421C62.2122 30.5266 67.7484 25.1864 74.6067 25.1864C81.4651 25.1864 87.0014 30.5266 87.0014 37.1421C87.0014 43.7575 81.4651 49.0977 74.6067 49.0977Z" fill="white"/>
<path d="M131.306 14.3468C126.597 14.3468 122.3 16.1801 119.16 19.2088V1.27539H106.765V58.6623H118.334V53.3222C121.143 57.3074 125.935 59.9376 131.306 59.9376C144.858 59.9376 155.848 49.7355 155.848 37.1422C155.848 24.5489 144.858 14.3468 131.306 14.3468ZM131.058 49.0979C124.2 49.0979 118.664 43.7577 118.664 37.1422C118.664 30.5268 124.2 25.1866 131.058 25.1866C137.917 25.1866 143.454 30.5268 143.454 37.1422C143.454 43.7577 137.917 49.0979 131.058 49.0979Z" fill="white"/>
<path d="M161.637 58.6623H174.031V1.27539H161.637V58.6623Z" fill="white"/>
<path d="M204.606 14.3467C190.888 14.3467 179.816 24.5488 179.816 37.1421C179.816 49.7354 190.888 59.9375 204.606 59.9375C215.512 59.9375 224.767 53.4815 228.073 44.4748H214.356C212.124 47.2645 208.571 49.0977 204.606 49.0977C199.234 49.0977 194.772 45.8299 192.955 41.2867H228.981C229.23 39.9317 229.395 38.5768 229.395 37.1421C229.395 24.5488 218.322 14.3467 204.606 14.3467ZM192.955 32.9974C194.772 28.4543 199.234 25.1864 204.606 25.1864C209.894 25.1864 214.439 28.4543 216.256 32.9974H192.955Z" fill="white"/>
<path d="M246.884 52.9234C246.884 49.1773 243.661 46.0688 239.777 46.0688C235.811 46.0688 232.671 49.1773 232.671 52.9234C232.671 56.7492 235.811 59.7779 239.777 59.7779C243.661 59.7779 246.884 56.7492 246.884 52.9234Z" fill="white"/>
</g>
</g>
<defs>
<clipPath id="clip0_0_345">
<rect width="247.172" height="59.9375" fill="white"/>
</clipPath>
<clipPath id="clip1_0_345">
<rect width="247.172" height="59.9375" fill="white"/>
</clipPath>
</defs>
</svg>
