<svg width="118" height="30" viewBox="0 0 118 30" fill="none" xmlns="http://www.w3.org/2000/svg">
<mask id="mask0_0_416" style="mask-type:alpha" maskUnits="userSpaceOnUse" x="-1" y="-1" width="23" height="32">
<path d="M3.14262 19.554C3.14262 24.1928 6.88383 27.1108 10.9243 27.1108C13.8425 27.1108 18.5564 26.1381 18.5564 18.9554C18.5564 16.9353 15.7131 15.0648 10.9992 14.4662C7.73563 14.0518 3.44192 12.3712 3.44192 8.40577C3.44192 3.76692 8.90409 3.09354 10.8495 3.09354C12.4957 3.09354 17.9578 3.99138 17.9578 8.92951" stroke="#09FF00" stroke-width="6.4349"/>
</mask>
<g mask="url(#mask0_0_416)">
<path d="M14.0396 12.3874C10.3036 11.7167 6.48891 10.6515 6.48891 8.63948C6.48891 6.98267 8.33721 5.6808 10.6969 5.6808C12.6239 5.6808 14.3541 7.02202 14.8655 8.79735H21.1184C21.1184 3.7871 16.3599 0 10.6969 0C4.4046 0 0.393276 3.66888 0.393276 8.87621C0.393276 12.9397 4.24732 15.1883 8.84841 16.2535C13.0172 17.2398 15.534 17.8314 15.534 20.1984C15.534 22.605 13.6069 23.9857 10.6969 23.9857C8.17993 23.9857 6.41019 22.0921 6.13499 19.6461H0C0 25.0115 4.60124 29.6665 10.6969 29.6665C17.3824 29.6665 21.6296 25.6427 21.6296 20.1984C21.6296 15.7012 17.8936 13.0974 14.0396 12.3874Z" fill="white"/>
</g>
<mask id="mask1_0_416" style="mask-type:alpha" maskUnits="userSpaceOnUse" x="23" y="6" width="25" height="25">
<path d="M44.5952 29.5926C44.5952 29.5926 44.3708 20.689 44.3708 18.3696C44.3708 14.9279 41.4526 9.84009 34.5688 9.84009C29.8549 9.84009 26.4878 14.7782 26.4878 19.1178C26.4878 24.5048 31.3514 27.1235 35.3919 27.1235C38.31 27.1235 44.3708 25.4027 44.2959 16.8732" stroke="#09FF00" stroke-width="6.28525"/>
</mask>
<g mask="url(#mask1_0_416)">
<path d="M35.2148 7.11378C28.7653 7.11378 23.5348 12.1634 23.5348 18.3965C23.5348 24.6296 28.7653 29.6792 35.2148 29.6792C37.771 29.6792 40.0519 28.3774 41.389 26.405V29.0481H46.8947V18.3965C46.8947 12.1634 41.6644 7.11378 35.2148 7.11378ZM35.3327 24.314C32.0686 24.314 29.4338 21.6709 29.4338 18.3965C29.4338 15.1221 32.0686 12.479 35.3327 12.479C38.5969 12.479 41.2317 15.1221 41.2317 18.3965C41.2317 21.6709 38.5969 24.314 35.3327 24.314Z" fill="white"/>
</g>
<path d="M56.537 9.5272V0.650986H50.638V29.0551H56.1437L56.2684 22.8657L56.2821 18.603L56.4689 12.9112L56.537 9.5272ZM62.2 12.486C58.9359 12.486 65.4641 12.486 62.2 12.486V12.486Z" fill="white"/>
<mask id="mask2_0_416" style="mask-type:alpha" maskUnits="userSpaceOnUse" x="51" y="7" width="24" height="23">
<path d="M55.0488 18.2728C55.048 18.3198 55.0476 18.3669 55.0476 18.414C55.0477 22.9278 58.5777 26.5927 62.9255 26.5927C67.2733 26.5927 70.8034 22.9278 70.8034 18.414C70.8034 13.9003 67.2733 10.2354 62.9255 10.2354C58.6231 10.2354 55.1215 13.824 55.0488 18.2728Z" stroke="#09FF00" stroke-width="6.4349"/>
</mask>
<g mask="url(#mask2_0_416)">
<path d="M62.3178 7.12065C60.0762 7.12065 58.0313 8.02792 56.5369 9.52702C56.5369 9.52702 53.8998 11.4189 54.0485 18.4305C54.1727 24.2871 56.1436 26.4118 56.1436 26.4118C57.4807 28.3842 59.7617 29.6861 62.3178 29.6861C68.7675 29.6861 73.9979 24.6365 73.9979 18.4034C73.9979 12.1703 68.7675 7.12065 62.3178 7.12065ZM62.1999 24.3209C58.9357 24.3209 56.3009 21.6778 56.3009 18.4034C56.3009 15.129 58.9357 12.4859 62.1999 12.4859C65.464 12.4859 68.0989 15.129 68.0989 18.4034C68.0989 21.6778 65.464 24.3209 62.1999 24.3209Z" fill="white"/>
</g>
<path d="M76.7533 29.0292H82.6525V0.625092H76.7533V29.0292Z" fill="white"/>
<mask id="mask3_0_416" style="mask-type:alpha" maskUnits="userSpaceOnUse" x="84" y="6" width="26" height="25">
<path d="M91.1359 18.4145H106.176C106.176 18.4145 106.699 10.0342 97.1967 10.0342C88.966 10.0342 88.0681 17.2173 88.0681 18.5641C88.0681 19.911 89.7891 27.2438 97.4212 27.2438C102.659 27.2438 104.978 23.9515 104.978 21.8564" stroke="#09FF00" stroke-width="6.73419"/>
</mask>
<g mask="url(#mask3_0_416)">
<path d="M97.2027 7.00856C90.675 7.00856 85.405 12.0582 85.405 18.2913C85.405 24.5244 90.675 29.574 97.2027 29.574C102.394 29.574 106.798 26.3786 108.372 21.9207H101.843C100.782 23.3015 99.0912 24.2088 97.2027 24.2088C94.6467 24.2088 92.5231 22.5914 91.6582 20.3427H108.805C108.922 19.672 109.001 19.0013 109.001 18.2913C109.001 12.0582 103.732 7.00856 97.2027 7.00856ZM91.6582 16.2399C92.5231 13.9912 94.6467 12.3738 97.2027 12.3738C99.7197 12.3738 101.882 13.9912 102.749 16.2399H91.6582Z" fill="white"/>
</g>
<path d="M113.882 26.1346C113.882 26.1355 113.882 26.1359 113.882 26.1359" stroke="white" stroke-width="6.28525" stroke-linecap="round"/>
</svg>
