<svg width="127" height="130" viewBox="0 0 127 130" fill="none" xmlns="http://www.w3.org/2000/svg">
<g opacity="0.930588" clip-path="url(#clip0_0_131)">
<path d="M109.972 106.361C56.6439 131.74 23.5481 110.505 2.36253 97.6084C1.05157 96.7957 -1.1766 97.7986 0.756645 100.019C7.81463 108.577 30.9452 129.205 61.1372 129.205C91.35 129.205 109.324 112.719 111.573 109.843C113.805 106.991 112.228 105.418 109.971 106.361H109.972ZM124.949 98.0894C123.516 96.2246 116.24 95.877 111.661 96.4394C107.075 96.9857 100.192 99.7885 100.79 101.471C101.097 102.102 101.724 101.819 104.875 101.536C108.034 101.221 116.884 100.104 118.728 102.514C120.58 104.942 115.905 116.505 115.051 118.369C114.227 120.235 115.366 120.715 116.916 119.473C118.444 118.232 121.211 115.016 123.068 110.466C124.912 105.891 126.037 99.5093 124.948 98.0894H124.949Z" fill="#FF9900"/>
<path fill-rule="evenodd" clip-rule="evenodd" d="M74.1144 54.5727C74.1144 61.2318 74.2826 66.7853 70.9168 72.6991C68.2002 77.5075 63.8968 80.4645 59.0888 80.4645C52.5255 80.4645 48.7031 75.4639 48.7031 68.0836C48.7031 53.5146 61.7568 50.8704 74.1144 50.8704V54.5727ZM91.3514 96.2354C90.2214 97.2449 88.5866 97.3174 87.3126 96.6439C81.6391 91.9322 80.6292 89.7446 77.504 85.2486C68.1282 94.8171 61.4928 97.6777 49.3284 97.6777C34.952 97.6777 23.7488 88.8065 23.7488 71.0404C23.7488 57.1693 31.274 47.7209 41.9714 43.1055C51.2515 39.0181 64.2096 38.2969 74.1144 37.1674V34.9554C74.1144 30.8923 74.4266 26.0843 72.0469 22.5746C69.9551 19.4252 65.9644 18.1269 62.4541 18.1269C55.9394 18.1269 50.1215 21.4684 48.7031 28.3921C48.4142 29.9311 47.2846 31.4457 45.7462 31.5177L29.1578 29.739C27.7638 29.4258 26.2252 28.2963 26.6099 26.1563C30.4323 6.05868 48.5824 0 64.8338 0C73.1521 0 84.0183 2.21195 90.5816 8.51083C98.8999 16.2757 98.1064 26.6372 98.1064 37.9123V64.5496C98.1064 72.5551 101.424 76.0649 104.549 80.3926C105.655 81.931 105.896 83.7827 104.501 84.936C101.015 87.8447 94.8125 93.2543 91.399 96.2836L91.3509 96.2354" fill="black"/>
<path d="M109.972 106.361C56.6439 131.74 23.5481 110.505 2.36253 97.6084C1.05157 96.7957 -1.1766 97.7986 0.756645 100.019C7.81463 108.577 30.9452 129.205 61.1372 129.205C91.35 129.205 109.324 112.719 111.573 109.843C113.805 106.991 112.228 105.418 109.971 106.361H109.972ZM124.949 98.0894C123.516 96.2246 116.24 95.877 111.661 96.4394C107.075 96.9857 100.192 99.7885 100.79 101.471C101.097 102.102 101.724 101.819 104.875 101.536C108.034 101.221 116.884 100.104 118.728 102.514C120.58 104.942 115.905 116.505 115.051 118.369C114.227 120.235 115.366 120.715 116.916 119.473C118.444 118.232 121.211 115.016 123.068 110.466C124.912 105.891 126.037 99.5093 124.948 98.0894H124.949Z" fill="#FF9900"/>
<path fill-rule="evenodd" clip-rule="evenodd" d="M74.1144 54.5727C74.1144 61.2318 74.2826 66.7853 70.9168 72.6991C68.2002 77.5075 63.8968 80.4645 59.0888 80.4645C52.5255 80.4645 48.7031 75.4639 48.7031 68.0836C48.7031 53.5146 61.7568 50.8704 74.1144 50.8704V54.5727ZM91.3514 96.2354C90.2214 97.2449 88.5866 97.3174 87.3126 96.6439C81.6391 91.9322 80.6292 89.7446 77.504 85.2486C68.1282 94.8171 61.4928 97.6777 49.3284 97.6777C34.952 97.6777 23.7488 88.8065 23.7488 71.0404C23.7488 57.1693 31.274 47.7209 41.9714 43.1055C51.2515 39.0181 64.2096 38.2969 74.1144 37.1674V34.9554C74.1144 30.8923 74.4266 26.0843 72.0469 22.5746C69.9551 19.4252 65.9644 18.1269 62.4541 18.1269C55.9394 18.1269 50.1215 21.4684 48.7031 28.3921C48.4142 29.9311 47.2846 31.4457 45.7462 31.5177L29.1578 29.739C27.7638 29.4258 26.2252 28.2963 26.6099 26.1563C30.4323 6.05868 48.5824 0 64.8338 0C73.1521 0 84.0183 2.21195 90.5816 8.51083C98.8999 16.2757 98.1064 26.6372 98.1064 37.9123V64.5496C98.1064 72.5551 101.424 76.0649 104.549 80.3926C105.655 81.931 105.896 83.7827 104.501 84.936C101.015 87.8447 94.8125 93.2543 91.399 96.2836L91.3509 96.2354" fill="black"/>
</g>
<defs>
<clipPath id="clip0_0_131">
<rect width="126.384" height="129.625" fill="white"/>
</clipPath>
</defs>
</svg>
