<svg width="243" height="47" viewBox="0 0 243 47" fill="none" xmlns="http://www.w3.org/2000/svg">
<g clip-path="url(#clip0_0_39)">
<path d="M0 0.0012207H17.8024C21.1933 0.0012207 23.7365 0.848161 25.6204 2.25973C27.6926 3.95361 28.823 6.40032 28.823 9.41164C28.823 12.8935 27.4101 15.0579 24.5842 16.3754V16.5636C28.3519 17.7869 30.5185 21.1747 30.5185 25.2212C30.5185 29.0794 29.0113 32.0909 26.5622 33.9729C24.4901 35.4786 21.8527 36.1372 18.2734 36.1372H0V0.0012207ZM16.0128 14.1169C17.8966 14.1169 19.3095 13.0817 19.3095 10.9173C19.3095 8.84702 17.8966 7.81187 15.9186 7.81187H9.79604V14.0228H16.0128V14.1169ZM16.8605 28.1383C19.027 28.1383 20.6282 26.8209 20.6282 24.4683C20.6282 21.9275 18.9328 20.7982 16.8605 20.7982H9.89022V28.2325H16.8605V28.1383Z" fill="white"/>
<path d="M32.1202 0.0012207H41.4454V36.2314H32.1202V0.0012207Z" fill="white"/>
<path d="M43.3287 23.3394C43.3287 15.1523 48.6035 9.69421 56.7983 9.69421C64.9929 9.69421 70.1736 15.2464 70.1736 23.3394C70.1736 31.5264 64.9929 36.9845 56.7983 36.9845C48.6035 36.9845 43.3287 31.5264 43.3287 23.3394ZM60.8485 23.3394C60.8485 18.8224 59.4356 15.9992 56.6097 15.9992C53.784 15.9992 52.4653 18.8224 52.4653 23.3394C52.4653 27.8564 53.784 30.7736 56.6097 30.7736C59.4356 30.6795 60.8485 27.8564 60.8485 23.3394Z" fill="white"/>
<path d="M71.2102 23.3394C71.2102 15.1523 76.4849 9.69421 84.6797 9.69421C92.8745 9.69421 97.9609 15.1523 97.9609 23.3394C97.9609 31.5264 92.7804 36.9845 84.5856 36.9845C76.4849 36.9845 71.2102 31.5264 71.2102 23.3394ZM88.7301 23.3394C88.7301 18.8224 87.3171 15.9992 84.4914 15.9992C81.6657 15.9992 80.3468 18.8224 80.3468 23.3394C80.3468 27.8564 81.6657 30.7736 84.4914 30.7736C87.3171 30.6795 88.7301 27.8564 88.7301 23.3394Z" fill="white"/>
<path d="M99.8442 10.3525H108.51V14.2107H108.698C110.394 11.1994 112.749 9.59961 116.516 9.59961C119.813 9.59961 122.262 11.1994 123.487 14.0225H123.675C125.747 10.6348 128.479 9.59961 131.681 9.59961C137.71 9.59961 140.253 14.0225 140.253 19.9511V36.137H131.21V21.5508C131.21 18.9159 130.363 17.2221 128.102 17.2221C125.841 17.2221 124.711 19.2924 124.711 22.1155V36.137H115.669V21.5508C115.669 18.9159 114.821 17.2221 112.56 17.2221C110.3 17.2221 109.169 19.2924 109.169 22.1155V36.137H99.8442V10.3525Z" fill="white"/>
<path d="M151.65 32.7495H151.556V36.1372H142.89V0.0012207H151.933V12.9876H152.121C153.816 10.7291 156.171 9.50575 159.468 9.50575C165.967 9.50575 169.735 15.3402 169.735 23.1509C169.735 31.9025 165.685 36.9841 158.903 36.9841C156.077 36.9841 153.157 35.6667 151.65 32.7495ZM160.41 23.0567C160.41 18.9162 158.903 16.1872 156.171 16.1872C153.345 16.1872 151.65 18.9162 151.65 23.0567C151.65 27.1974 153.44 29.9264 156.171 29.9264C158.903 29.9264 160.41 27.2914 160.41 23.0567Z" fill="white"/>
<path d="M170.772 23.2447C170.772 15.1518 176.14 9.59961 183.864 9.59961C187.727 9.59961 190.646 10.823 192.907 12.9874C195.921 15.9046 197.239 20.4216 197.145 25.6915H179.814C180.191 28.8909 181.698 30.5848 184.429 30.5848C186.03 30.5848 187.443 29.832 188.008 28.1382H196.769C195.262 34.0667 190.646 36.984 184.147 36.984C176.14 36.8898 170.772 31.4317 170.772 23.2447ZM179.814 20.5158H188.103C187.914 17.4103 186.219 15.8105 184.053 15.8105C181.51 15.7164 180.097 17.5044 179.814 20.5158Z" fill="white"/>
<path d="M207.412 14.7757H207.601C209.485 11.1998 211.933 9.78821 215.042 9.78821C215.794 9.78821 216.267 9.8823 216.549 10.0705V17.9753H216.36C210.992 17.0342 207.883 19.575 207.883 25.4096V36.2315H198.746V10.3528H207.412V14.7757Z" fill="white"/>
<path d="M217.491 36.2312H226.251C226.627 37.3604 227.758 38.3957 229.923 38.3957C232.844 38.3957 233.881 36.6076 233.881 33.8787V31.9965H233.691C232.279 33.6904 230.301 34.9138 227.474 34.9138C221.917 34.9138 217.02 30.7731 217.02 22.6802C217.02 15.246 220.975 9.50562 227.004 9.50562C230.488 9.50562 232.561 10.9172 233.973 13.0816H234.162V10.2584H242.828V32.6553C242.828 36.7958 241.416 39.9954 239.249 41.8776C236.987 43.8537 233.786 44.7007 230.112 44.7007C223.142 44.7947 218.338 41.9716 217.491 36.2312ZM234.257 22.3038C234.257 19.1042 232.75 16.4693 230.112 16.4693C227.569 16.4693 225.967 18.7279 225.967 22.3038C225.967 25.7857 227.569 28.2323 230.112 28.2323C232.655 28.2323 234.257 25.6915 234.257 22.3038Z" fill="white"/>
</g>
<defs>
<clipPath id="clip0_0_39">
<rect width="242.828" height="46.3412" fill="white" transform="translate(0 0.0012207)"/>
</clipPath>
</defs>
</svg>
