<svg width="118" height="47" viewBox="0 0 118 47" fill="none" xmlns="http://www.w3.org/2000/svg">
<g clip-path="url(#clip0_0_53)">
<path d="M16.5064 4.17262H20.2509C22.5313 3.83668 24.8602 4.13203 26.9845 5.02663C29.6495 6.63005 31.5826 9.2114 32.3713 12.22C32.9297 13.7967 32.9297 13.7967 34.2765 13.2383H35.3274V0.75657H0.0831022V2.95729H1.52835C2.1564 2.95294 2.77744 3.08935 3.34584 3.3565C3.91425 3.62365 4.41558 4.01476 4.81302 4.50109C6.15972 6.66896 6.38965 9.09961 6.38965 21.7455C6.38965 35.1798 6.09403 38.4644 4.81302 40.1396C4.49676 40.5703 4.08733 40.9239 3.61525 41.1741C3.14317 41.4244 2.62068 41.5648 2.08674 41.5848C0.0831025 41.9461 0.0831022 41.9134 0.0831022 42.8002C-0.0277007 43.0968 -0.0277007 43.4233 0.0831022 43.7199H22.3202C22.4673 43.4299 22.544 43.1091 22.544 42.7838C22.544 42.4584 22.4673 42.1377 22.3202 41.8477C21.7817 41.6978 21.2327 41.588 20.6779 41.5191C20.0777 41.4479 19.4845 41.3269 18.9042 41.1578C18.0732 40.5512 17.415 39.7382 16.9944 38.7992C16.574 37.8602 16.4057 36.8278 16.5064 35.804C16.178 33.636 16.0137 29.6616 16.0137 26.377V23.782H17.3276C18.9646 23.732 20.6004 23.9089 22.1888 24.3076C22.9498 24.7779 23.5976 25.4102 24.0858 26.1598C24.5741 26.9092 24.891 27.7573 25.0137 28.6434L25.3094 29.6616H27.3129V15.1105H25.4735L25.1778 16.523C25.0535 17.429 24.7183 18.2934 24.1992 19.0464C23.6801 19.7995 22.9915 20.4201 22.1888 20.8586C21.4116 21.09 20.5926 21.1461 19.791 21.0229H16.0137V17.4755C16.0137 13.7967 16.2108 6.04487 16.3421 4.82955L16.5064 4.17262ZM170.229 30.22C168.675 27.721 166.254 25.8843 163.429 25.0631C161.264 24.386 159.262 23.2678 157.55 21.7784C157.165 21.4058 156.876 20.9446 156.71 20.435C156.544 19.9256 156.505 19.3831 156.597 18.8551C156.6 17.8194 157.013 16.8271 157.747 16.096C158.244 15.5752 158.873 15.1993 159.568 15.0084C160.262 14.8174 160.995 14.8187 161.689 15.012C163.124 15.4212 164.423 16.2112 165.446 17.2983C166.47 18.3854 167.18 19.7292 167.502 21.1872C168.028 22.6653 168.094 22.6653 169.046 22.2711L169.637 22.0411V13.8624L169.211 13.6653C165.976 12.5295 162.547 12.0603 159.126 12.2857C156.181 12.3603 153.37 13.5317 151.243 15.5704C150.279 16.4733 149.523 17.5762 149.029 18.8017C148.536 20.0272 148.316 21.3459 148.386 22.6653C148.404 24.6825 149.205 26.6136 150.619 28.0521C152.182 29.5892 154.1 30.7174 156.203 31.3368C161.294 33.3403 162.772 34.6214 162.772 36.9535C162.795 37.9369 162.481 38.8986 161.884 39.6805C161.288 40.4626 160.442 41.0182 159.488 41.2564C158.341 41.5084 157.153 41.5084 156.006 41.2564C154.504 40.6736 153.163 39.7406 152.095 38.5352C151.027 37.3297 150.262 35.8866 149.863 34.3258L149.437 33.2747H148.845C148.563 33.2958 148.285 33.3622 148.024 33.4719H147.696V42.8002H148.254C150.473 43.5384 152.763 44.0448 155.086 44.3111H158.371C159.795 44.4157 161.227 44.2825 162.608 43.9169C164.361 43.5935 165.999 42.817 167.359 41.6646C168.718 40.5121 169.754 39.0239 170.36 37.3476C170.751 36.4115 170.952 35.4064 170.951 34.3915C171.08 32.9616 170.831 31.5229 170.229 30.22ZM139.287 13.2383C137.319 12.4119 135.198 12.011 133.064 12.062C130.93 12.1129 128.83 12.6145 126.904 13.5339C125.093 14.4197 123.488 15.6754 122.192 17.22C120.896 18.7645 119.939 20.5637 119.382 22.501C118.671 24.6145 118.37 26.844 118.495 29.0704C118.472 30.2816 118.571 31.4921 118.791 32.6834C119.321 35.6127 120.735 38.3096 122.843 40.4116C124.951 42.5136 127.652 43.9203 130.583 44.4425C132.491 44.683 134.422 44.683 136.331 44.4425C138.311 44.0935 140.207 43.3688 141.915 42.3074C143.328 41.5155 144.523 40.3873 145.396 39.0228C145.34 38.8088 145.242 38.6083 145.106 38.4333C144.971 38.2583 144.801 38.1124 144.608 38.0045C144.233 38.1404 143.879 38.3283 143.557 38.563C141.923 39.6398 139.994 40.1794 138.039 40.1068C136.741 40.1946 135.44 39.9924 134.23 39.5153C133.02 39.0381 131.931 38.2976 131.042 37.3476C130.355 36.7092 129.788 35.9527 129.367 35.1141C128.347 33.0722 127.797 30.8273 127.758 28.5448V27.2638H145.955V26.6069C145.995 25.9505 145.995 25.2924 145.955 24.6361C145.948 22.3168 145.328 20.0405 144.157 18.0387C142.986 16.0367 141.305 14.3805 139.287 13.2383ZM130.123 24.6032H127.823V22.6653C128.579 17.7053 130.451 14.7492 132.751 14.7492C135.05 14.7492 136.035 17.6726 136.462 23.0266V24.5375H134.491L130.123 24.6032ZM82.8894 12.1543C81.7543 12.1103 80.6262 12.3473 79.6047 12.8441C77.3847 13.9222 75.5916 15.7153 74.5135 17.9353L74.0864 18.7237V12.1543H73.9223C73.5281 12.1543 61.3749 14.585 60.9807 14.7492C60.5865 14.9134 60.718 14.9463 60.718 15.5375C60.718 16.1288 60.718 16.2274 60.9807 16.2601L62.2616 16.523C62.6206 16.5318 62.9726 16.6221 63.2912 16.7871C63.6099 16.9522 63.887 17.1876 64.1011 17.4755C64.9223 18.5595 65.0866 20.4646 65.0866 28.5777C65.2488 32.2301 65.0949 35.8896 64.6267 39.5156C64.5164 40.0623 64.2391 40.5613 63.8333 40.9437C63.4272 41.3261 62.9125 41.5732 62.3602 41.6505L61.2434 41.8804H60.8164V42.8002C60.6974 43.1066 60.6974 43.4465 60.8164 43.7528H79.1777V42.8002C79.2413 42.4859 79.2413 42.162 79.1777 41.8477C78.0723 41.8045 76.9728 41.6617 75.8931 41.4207C75.305 41.1131 74.824 40.6347 74.5132 40.0484C74.2024 39.4619 74.0767 38.7952 74.1522 38.1361C73.8894 36.2309 73.758 30.6469 73.8237 26.377C73.8894 22.1068 73.8237 21.8441 74.185 21.5485C75.2841 20.7057 76.6443 20.2755 78.028 20.3331C79.3324 20.3617 80.6132 20.6873 81.7726 21.2856C82.1744 21.5089 82.6057 21.6747 83.0537 21.7784C83.0537 21.7784 86.3383 13.8295 86.3383 13.4682C85.9179 12.9798 85.3824 12.6038 84.7803 12.3744C84.178 12.145 83.5281 12.0694 82.8894 12.1543ZM60.7508 25.95C60.6362 23.6027 59.9623 21.3169 58.7852 19.2829C57.6083 17.2488 55.9622 15.5256 53.9844 14.2565C51.6339 12.9885 49.0187 12.2893 46.3491 12.2151C43.6793 12.141 41.0294 12.6939 38.6121 13.8295C35.1945 15.6317 32.6139 18.6953 31.4188 22.3697C30.1843 26.4834 30.1843 30.8689 31.4188 34.9827C32.066 37.2309 33.2755 39.2772 34.9334 40.9279C36.998 42.9426 39.6604 44.2335 42.5209 44.6068C44.3572 44.7603 46.2029 44.7603 48.0391 44.6068C48.7149 44.504 49.3838 44.3613 50.0428 44.1798C52.7164 43.4319 55.1217 41.938 56.9773 39.8731C58.8328 37.808 60.062 35.2573 60.5208 32.5193C60.8487 30.3456 60.9259 28.1413 60.7508 25.95ZM47.0865 42.3733C43.8019 43.3586 41.3384 40.1725 40.5172 33.4719C40.2157 29.9636 40.2157 26.4361 40.5172 22.928C41.1742 17.5412 42.8493 14.8149 45.4443 14.8149C45.9678 14.7825 46.4914 14.8759 46.9715 15.0873C47.4515 15.2988 47.8739 15.6221 48.2034 16.0302C50.4041 18.2309 51.488 22.5995 51.488 29.1688C51.7613 32.8867 51.1769 36.6176 49.7799 40.0739C49.1631 41.0819 48.2088 41.8384 47.0865 42.209V42.3733ZM106.21 12.8113C105.284 12.692 104.345 12.692 103.419 12.8113C101.639 12.8098 99.8806 13.1906 98.2615 13.928L97.2433 14.3551V7.22735C97.4213 4.82188 97.4213 2.40656 97.2433 0.00109863C96.8492 0.00109863 84.3018 2.39891 84.1047 2.49744C84.0078 2.73995 84.0078 3.01041 84.1047 3.25292C84.1047 3.94269 84.1047 3.90985 85.5828 4.23832C85.9978 4.33138 86.3965 4.4864 86.7653 4.69817C87.4064 5.30109 87.8332 6.0969 87.9806 6.96457C88.3545 9.46427 88.4756 11.9953 88.3419 14.5193V43.3586L89.2288 43.5556C90.5426 43.8512 94.2543 44.4754 95.4697 44.6068C97.8964 44.7998 100.335 44.7998 102.762 44.6068C105.455 44.3316 108.023 43.3266 110.187 41.7002C112.352 40.0738 114.032 37.8874 115.046 35.3768C115.651 33.7656 116.069 32.0904 116.294 30.3842C116.49 28.0729 116.413 25.7467 116.064 23.4536C115.712 20.8831 114.578 18.4831 112.815 16.5794C111.052 14.6756 108.746 13.36 106.21 12.8113ZM97.6046 41.8148C97.6046 41.3878 97.2762 27.001 97.3419 21.2529V16.7529L98.2944 16.523C98.9372 16.4308 99.5896 16.4308 100.232 16.523C100.943 16.4506 101.658 16.6122 102.269 16.9827C103.496 17.8293 104.514 18.9431 105.248 20.2404C105.982 21.5376 106.412 22.9843 106.506 24.4718C106.745 26.8637 106.745 29.2733 106.506 31.6652C106.309 35.1416 104.97 38.4555 102.696 41.0922C102.05 41.7053 101.24 42.1163 100.364 42.2747C99.7008 42.3899 99.023 42.3899 98.3601 42.2747C97.7361 42.2747 97.7359 42.0776 97.7359 41.8148H97.6046Z" fill="white"/>
</g>
<defs>
<clipPath id="clip0_0_53">
<rect width="170.984" height="46.3416" fill="white" transform="translate(0 0.00109863)"/>
</clipPath>
</defs>
</svg>
