<svg width="69" height="130" viewBox="0 0 69 130" fill="none" xmlns="http://www.w3.org/2000/svg">
<g opacity="0.930588" clip-path="url(#clip0_0_140)">
<path d="M43.7298 0.380615L43.6814 28.7258L43.6331 57.0709L41.4083 50.4908V50.474L38.5227 113.576C41.36 121.944 42.8754 126.415 42.8915 126.433C42.9077 126.449 44.5197 126.55 46.4704 126.652C52.3706 126.955 59.6895 127.613 65.2512 128.339C66.541 128.508 67.6372 128.592 67.7177 128.524C67.7984 128.457 67.8145 99.6051 67.7984 64.3935L67.7501 0.380615H43.7298Z" fill="#B1060F"/>
<path d="M0.284058 0.296903V64.3772C0.284058 99.6229 0.316299 128.491 0.364662 128.542C0.413025 128.592 2.49263 128.373 5.00751 128.086C7.52237 127.8 10.9883 127.428 12.7133 127.276C15.3572 127.041 23.2887 126.517 24.1915 126.5C24.4655 126.5 24.4816 125.067 24.5139 99.3528L24.5623 72.2059L26.4806 77.8749C26.7708 78.7523 26.8675 79.0223 27.1577 79.8827L30.0434 16.7979C29.4308 14.9925 29.7532 15.9373 29.06 13.8789C26.7063 6.91078 24.7073 1.0224 24.6267 0.752447L24.4655 0.280029H0.284058V0.296903Z" fill="#B1060F"/>
<path d="M43.7298 0.380615L43.6814 28.7258L43.6331 57.0709L41.4083 50.4908V50.474L38.5227 113.576C41.36 121.944 42.8754 126.415 42.8915 126.433C42.9077 126.449 44.5197 126.55 46.4704 126.652C52.3706 126.955 59.6895 127.613 65.2512 128.339C66.541 128.508 67.6372 128.592 67.7177 128.524C67.7984 128.457 67.8145 99.6051 67.7984 64.3935L67.7501 0.380615H43.7298Z" fill="#B1060F"/>
<path d="M0.284058 0.296903V64.3772C0.284058 99.6229 0.316299 128.491 0.364662 128.542C0.413025 128.592 2.49263 128.373 5.00751 128.086C7.52237 127.8 10.9883 127.428 12.7133 127.276C15.3572 127.041 23.2887 126.517 24.1915 126.5C24.4655 126.5 24.4816 125.067 24.5139 99.3528L24.5623 72.2059L26.4806 77.8749C26.7708 78.7523 26.8675 79.0223 27.1577 79.8827L30.0434 16.7979C29.4308 14.9925 29.7532 15.9373 29.06 13.8789C26.7063 6.91078 24.7073 1.0224 24.6267 0.752447L24.4655 0.280029H0.284058V0.296903Z" fill="#B1060F"/>
<path d="M0.284058 0.296903V36.2683L24.4977 103.487C24.4977 101.951 24.4977 101.108 24.5139 99.3528L24.5623 72.2059L26.4806 77.8749C37.1205 109.46 42.8435 126.399 42.8757 126.433C42.8918 126.449 44.5039 126.551 46.4545 126.653C52.3548 126.956 59.6737 127.614 65.2355 128.34C66.5252 128.509 67.6214 128.592 67.702 128.525C67.7504 128.474 67.7826 114.335 67.7826 94.3759L43.6979 21.8595L43.6817 28.7264L43.6334 57.0716L41.4086 50.4915C39.2323 44.0632 37.7815 39.7608 29.0278 13.8789C26.6741 6.91078 24.6751 1.0224 24.5945 0.752447L24.4333 0.280029H0.284058V0.296903Z" fill="url(#paint0_radial_0_140)"/>
<path d="M0.284058 0.296903L24.5462 72.2565V72.2228L26.4645 77.8918C37.1205 109.46 42.8435 126.399 42.8757 126.433C42.8918 126.449 44.5039 126.551 46.4545 126.653C52.3548 126.956 59.6737 127.614 65.2354 128.34C66.509 128.509 67.6214 128.592 67.6858 128.525L43.6334 57.0547V57.0716L41.4086 50.4915C39.2323 44.0632 37.7815 39.7608 29.0278 13.8789C26.6741 6.91078 24.6751 1.0224 24.5945 0.752447L24.4332 0.280029H12.3586L0.284058 0.296903Z" fill="#E50914"/>
</g>
<defs>
<radialGradient id="paint0_radial_0_140" cx="0" cy="0" r="1" gradientUnits="userSpaceOnUse" gradientTransform="translate(32.9033 63.6704) rotate(-19.9221) scale(4.47123 169.685)">
<stop/>
<stop offset="1" stop-opacity="0"/>
</radialGradient>
<clipPath id="clip0_0_140">
<rect width="68.7407" height="129.625" fill="white"/>
</clipPath>
</defs>
</svg>
