<svg width="130" height="130" viewBox="0 0 130 130" fill="none" xmlns="http://www.w3.org/2000/svg">
<path d="M64.6647 0C28.9521 0 0 28.9521 0 64.6654C0 100.38 28.9521 129.331 64.6647 129.331C100.381 129.331 129.331 100.38 129.331 64.6654C129.331 28.9543 100.381 0.0030888 64.664 0.0030888L64.6647 0ZM94.3195 93.2662C94.0436 93.7184 93.6812 94.1116 93.253 94.4236C92.825 94.7356 92.3395 94.96 91.8245 95.084C91.3095 95.2082 90.7751 95.2294 90.2518 95.1468C89.7287 95.064 89.2269 94.879 88.7753 94.6021C73.5927 85.3279 54.4796 83.2276 31.9706 88.3704C30.9283 88.6075 29.8346 88.4209 28.9298 87.8519C28.0249 87.2828 27.383 86.3778 27.1452 85.3357C27.0268 84.8197 27.0112 84.2854 27.0995 83.7634C27.1878 83.2415 27.3783 82.742 27.6598 82.2936C27.9415 81.8454 28.3087 81.457 28.7406 81.1509C29.1725 80.8447 29.6605 80.6267 30.1768 80.5095C54.8093 74.8816 75.9385 77.3048 92.9837 87.7218C94.8833 88.8879 95.4856 91.3666 94.3195 93.2662ZM102.234 75.6585C100.775 78.0307 97.671 78.7797 95.3002 77.3202C77.9185 66.6361 51.4226 63.542 30.8633 69.7829C28.1969 70.5882 25.3808 69.0855 24.5715 66.4237C24.1854 65.1441 24.3225 63.7635 24.9527 62.5847C25.583 61.406 26.655 60.5253 27.9336 60.1358C51.4179 53.0099 80.6133 56.4616 100.574 68.7281C102.945 70.1875 103.694 73.2917 102.234 75.6593V75.6585ZM102.913 57.3234C82.0727 44.9443 47.6876 43.806 27.7893 49.8455C24.594 50.8146 21.2149 49.0107 20.2465 45.8153C19.781 44.2802 19.9441 42.6229 20.7001 41.208C21.4562 39.793 22.7431 38.7363 24.2782 38.2702C47.12 31.3358 85.092 32.6756 109.087 46.9203C109.771 47.3249 110.368 47.8604 110.845 48.4962C111.322 49.132 111.668 49.8555 111.864 50.6254C112.06 51.3952 112.103 52.1964 111.99 52.9828C111.876 53.7692 111.609 54.5255 111.203 55.2084C109.504 58.0825 105.782 59.03 102.917 57.3234H102.913Z" fill="#61D96C"/>
</svg>
