<svg width="130" height="101" viewBox="0 0 130 101" fill="none" xmlns="http://www.w3.org/2000/svg">
<g opacity="0.930588" clip-path="url(#clip0_0_149)">
<path d="M126.729 17.2686C122.676 17.2686 119.802 20.4394 119.802 25.3066V43.1604H113.616V11.7346H119.728V15.5721C120.482 14.3002 121.562 13.2531 122.856 12.5393C124.152 11.8255 125.614 11.4709 127.091 11.5124H129.314V17.2686H126.729ZM109.341 27.4475C109.341 18.0761 102.674 11.0679 93.6507 11.0679C91.5187 11.0824 89.4107 11.5182 87.4478 12.3505C85.485 13.1827 83.706 14.3948 82.2133 15.9171C80.7206 17.4394 79.5437 19.2418 78.7502 21.2206C77.9567 23.1994 77.5623 25.3157 77.5896 27.4475C77.5896 36.8116 84.8127 43.8938 94.2364 43.8938C96.8681 43.9435 99.4736 43.3597 101.833 42.1917C104.192 41.0235 106.236 39.3054 107.793 37.1819L103.304 33.8926C102.274 35.3302 100.911 36.4968 99.3318 37.2928C97.7529 38.0888 96.004 38.4906 94.2364 38.4636C91.7176 38.4517 89.2868 37.538 87.3841 35.8881C85.4815 34.2382 84.2328 31.9613 83.8645 29.47H109.356L109.341 27.4475ZM83.9978 24.5657C85.1017 19.7726 88.9316 16.5277 93.5766 16.5277C98.2216 16.5277 102.044 19.7726 103.081 24.5657H83.9978ZM57.9948 11.0679C55.9276 11.0697 53.8812 11.481 51.9739 12.2783C50.0665 13.0755 48.336 14.2429 46.8825 15.7128V0H40.6966V43.1604H46.8084V39.1747C49.7692 42.17 53.7981 43.8673 58.0097 43.8938C60.1944 43.9402 62.3664 43.55 64.3984 42.746C66.4303 41.942 68.2812 40.7405 69.8428 39.2118C71.4043 37.6832 72.6449 35.8581 73.4918 33.8437C74.3388 31.8293 74.775 29.6661 74.775 27.4808C74.775 25.2957 74.3388 23.1324 73.4918 21.1181C72.6449 19.1036 71.4043 17.2786 69.8428 15.7499C68.2812 14.2212 66.4303 13.0196 64.3984 12.2156C62.3664 11.4117 60.1944 11.0215 58.0097 11.0679H57.9948ZM57.5504 38.3672C55.3942 38.3776 53.2836 37.747 51.4864 36.5559C49.6891 35.3646 48.2862 33.6665 47.4557 31.6767C46.6251 29.6869 46.4044 27.4952 46.8214 25.3797C47.2384 23.2642 48.2745 21.3204 49.7981 19.7947C51.3217 18.269 53.2642 17.2303 55.379 16.8104C57.4939 16.3904 59.6859 16.6082 61.6768 17.436C63.6677 18.2639 65.3679 19.6645 66.5616 21.46C67.7552 23.2557 68.3885 25.3654 68.3812 27.5216C68.3831 28.9438 68.1043 30.3523 67.5605 31.6664C67.0166 32.9805 66.2187 34.1743 65.2124 35.1793C64.2061 36.1842 63.0112 36.9805 61.6963 37.5226C60.3815 38.0645 58.9725 38.3415 57.5504 38.3377V38.3672ZM17.9163 38.0709C23.8874 38.0709 28.5249 33.4926 28.5249 26.6326V0H34.933V43.1604H28.599V39.0784C27.1192 40.6079 25.3444 41.8212 23.3822 42.6451C21.42 43.469 19.311 43.8862 17.1829 43.8715C7.97445 43.8715 0.884766 37.1597 0.884766 26.9808V0H7.41142V26.6697C7.41142 33.5667 11.8564 38.0709 17.9163 38.0709Z" fill="#262626"/>
<path d="M0.00402832 56.1167H30.2815V63.525H8.18271V74.0446H29.6666V81.201H8.18271V91.8985H30.2815V99.3072H0.00402832V56.1167ZM113.899 100.085C123.18 100.085 128.411 95.6394 128.411 89.5353C128.411 85.1867 125.314 81.9418 118.833 80.5343L111.98 79.1341C108.001 78.3932 106.749 77.6524 106.749 76.1708C106.749 74.2521 108.668 73.0741 112.201 73.0741C116.032 73.0741 118.869 74.1039 119.61 77.645H127.641C127.203 70.9776 122.41 66.5772 112.691 66.5772C104.29 66.5772 98.3926 70.0442 98.3926 76.7634C98.3926 81.4084 101.638 84.431 108.638 85.9052L116.299 87.6758C119.321 88.2684 120.129 89.0833 120.129 90.3354C120.129 92.3282 117.847 93.5802 114.158 93.5802C109.52 93.5802 106.867 92.5504 105.838 89.0093H97.7633C98.9411 95.6619 103.875 100.085 113.899 100.085ZM95.4293 99.2771H86.7397C81.2872 99.2771 78.2646 95.8846 78.2646 91.6021V74.6373H72.1529V67.4069H78.2943V58.3317H86.3692V67.4069H95.4293V74.6373H86.3692V89.5353C86.3692 91.2318 87.5471 92.0467 89.3918 92.0467H95.4293V99.2771ZM60.6108 67.4216V70.296C57.7678 67.8928 54.1621 66.5797 50.4393 66.5919C48.2105 66.545 45.9948 66.9436 43.922 67.7641C41.8492 68.5846 39.961 69.8106 38.3682 71.3703C36.7754 72.93 35.5099 74.7919 34.646 76.847C33.7821 78.9021 33.3371 81.109 33.3371 83.3383C33.3371 85.5675 33.7821 87.7744 34.646 89.8295C35.5099 91.8846 36.7754 93.7465 38.3682 95.306C39.961 96.8661 41.8492 98.0918 43.922 98.9127C45.9948 99.7327 48.2105 100.132 50.4393 100.085C54.1627 100.101 57.7697 98.7868 60.6108 96.3805V99.2621H68.6636V67.4069L60.6108 67.4216ZM51.106 93.0912C49.1744 93.1133 47.2798 92.5605 45.6631 91.5032C44.0463 90.4459 42.7804 88.9318 42.0262 87.1534C41.2721 85.3749 41.0636 83.4123 41.4274 81.5151C41.7913 79.6179 42.711 77.8718 44.0696 76.4985C45.4282 75.1252 47.1645 74.1869 49.0577 73.8027C50.9509 73.4186 52.9155 73.606 54.702 74.3411C56.4884 75.0762 58.016 76.3257 59.0905 77.9311C60.1651 79.5365 60.7381 81.425 60.7367 83.3568C60.7485 84.6302 60.5076 85.8933 60.028 87.073C59.5483 88.2527 58.8395 89.3257 57.9424 90.2295C57.0454 91.1334 55.9779 91.8506 54.802 92.3392C53.6259 92.8279 52.3647 93.0784 51.0912 93.0764L51.106 93.0912Z" fill="#5FB709"/>
</g>
<defs>
<clipPath id="clip0_0_149">
<rect width="129.617" height="100.5" fill="white" transform="translate(0.00402832)"/>
</clipPath>
</defs>
</svg>
