<svg width="130" height="44" viewBox="0 0 130 44" fill="none" xmlns="http://www.w3.org/2000/svg">
<g opacity="0.930588" clip-path="url(#clip0_0_154)">
<path d="M7.43406 31.0084C7.97876 32.411 8.73284 33.6103 9.69657 34.6062C10.6602 35.6023 11.802 36.3646 13.1216 36.8931C14.4415 37.4216 15.8764 37.6858 17.4267 37.6858C18.9351 37.6858 20.349 37.4113 21.6689 36.8624C22.9887 36.3135 24.1408 35.5412 25.1254 34.5453C26.1099 33.5492 26.8747 32.3602 27.4194 30.978C27.9641 29.5957 28.2363 28.051 28.2363 26.3435V0H34.8352V42.6861H28.2992V38.7224C26.8328 40.2264 25.1044 41.3851 23.1143 42.1983C21.124 43.0112 18.9769 43.4178 16.6726 43.4178C14.3262 43.4178 12.1371 43.0214 10.105 42.2286C8.07302 41.436 6.31321 40.3079 4.82595 38.8443C3.33869 37.3807 2.16543 35.6227 1.30659 33.5696C0.447609 31.5166 0.0181885 29.2299 0.0181885 26.7093V0H6.61705V26.3435C6.61705 28.051 6.88933 29.6058 7.43406 31.0084Z" fill="#010202"/>
<path d="M46.21 0V15.5499C47.6764 14.127 49.3733 12.999 51.3006 12.1655C53.2278 11.332 55.3227 10.9154 57.5852 10.9154C59.9315 10.9154 62.1309 11.3422 64.1841 12.1959C66.237 13.0496 68.0175 14.2083 69.5259 15.6719C71.0343 17.1354 72.2285 18.8632 73.1082 20.8551C73.9878 22.8473 74.428 24.9612 74.428 27.1972C74.428 29.433 73.9878 31.5369 73.1082 33.5085C72.2285 35.4802 71.0343 37.1978 69.5259 38.6612C68.0175 40.1248 66.237 41.2834 64.1841 42.1372C62.1309 42.9909 59.9314 43.4177 57.5852 43.4177C55.3227 43.4177 53.2174 43.001 51.2692 42.1675C49.3209 41.3342 47.6135 40.206 46.1471 38.7832V42.686H39.8625V0H46.21ZM46.9327 31.4047C47.4982 32.7058 48.2839 33.844 49.2895 34.8197C50.295 35.7954 51.4682 36.5679 52.8088 37.137C54.1497 37.7061 55.595 37.9907 57.1453 37.9907C58.6537 37.9907 60.0781 37.7061 61.4188 37.137C62.7595 36.5679 63.9221 35.7955 64.9069 34.8197C65.8915 33.8442 66.677 32.7058 67.2636 31.4047C67.8501 30.1039 68.1434 28.7014 68.1434 27.1972C68.1434 25.6929 67.8501 24.2803 67.2636 22.959C66.677 21.6377 65.8915 20.4893 64.9069 19.5136C63.9222 18.5381 62.7596 17.7757 61.4188 17.227C60.078 16.6782 58.6536 16.4036 57.1453 16.4036C55.6371 16.4036 54.2125 16.678 52.8719 17.227C51.5312 17.7759 50.3581 18.5381 49.3523 19.5136C48.3469 20.4893 47.5508 21.6377 46.9642 22.959C46.3777 24.2803 46.0844 25.6929 46.0844 27.1972C46.0842 28.7014 46.3671 30.1039 46.9327 31.4047Z" fill="#010202"/>
<path d="M78.0095 20.9157C78.8471 18.9643 79.9996 17.2468 81.4657 15.7629C82.9324 14.2791 84.6713 13.1103 86.6825 12.2566C88.6937 11.4029 90.872 10.9761 93.2184 10.9761C95.5228 10.9761 97.6599 11.3826 99.629 12.1956C101.598 13.0087 103.294 14.1369 104.719 15.5801C106.144 17.0232 107.254 18.7308 108.05 20.7024C108.846 22.6741 109.244 24.8186 109.244 27.1359V29.1482H83.1626C83.3726 30.4085 83.7917 31.5773 84.4201 32.6544C85.0485 33.7318 85.834 34.6668 86.7766 35.4596C87.7192 36.2524 88.7878 36.8724 89.9816 37.3194C91.1761 37.7666 92.443 37.9903 93.7838 37.9903C97.5969 37.9903 100.677 36.4657 103.022 33.4167L107.611 36.7095C106.018 38.7829 104.049 40.4091 101.703 41.588C99.3568 42.7669 96.7173 43.3564 93.7845 43.3564C91.3962 43.3564 89.165 42.9497 87.0908 42.1368C85.0174 41.3238 83.2155 40.1853 81.6865 38.7218C80.1567 37.2582 78.9528 35.5406 78.0725 33.569C77.1929 31.5974 76.7527 29.4528 76.7527 27.1356C76.7527 24.9404 77.1719 22.8671 78.0095 20.9157ZM86.8396 18.5069C85.0587 19.9501 83.875 21.871 83.2886 24.2695H102.834C102.29 21.871 101.127 19.9501 99.346 18.5069C97.565 17.0638 95.4808 16.3422 93.0924 16.3422C90.7048 16.3422 88.6198 17.0638 86.8396 18.5069Z" fill="#010202"/>
<path d="M121.122 19.2087C119.781 20.6316 119.111 22.5626 119.111 25.0019V42.6863H112.763V11.5864H119.048V15.4282C119.844 14.1679 120.881 13.1718 122.159 12.4401C123.436 11.7082 124.955 11.3423 126.715 11.3423H128.915V17.0744H126.275C124.181 17.0746 122.463 17.7859 121.122 19.2087Z" fill="#010202"/>
</g>
<defs>
<clipPath id="clip0_0_154">
<rect width="129.589" height="43.4375" fill="white" transform="translate(0.0181885)"/>
</clipPath>
</defs>
</svg>
