<svg width="130" height="105" viewBox="0 0 130 105" fill="none" xmlns="http://www.w3.org/2000/svg">
<g opacity="0.930588" clip-path="url(#clip0_0_121)">
<path d="M86.6713 41.3249C86.6713 41.3249 85.96 41.3728 85.6108 41.4282C84.2615 41.6454 83.8601 42.0106 83.8601 43.6719V56.7758C83.8601 58.5626 84.9728 58.6691 86.5426 58.7574C90.3739 58.9747 92.5996 55.5714 92.5996 50.0673C92.5996 44.5597 90.3889 41.3251 86.6714 41.3251C86.6714 41.3251 85.9601 41.373 85.6108 41.4284C84.2616 41.6457 83.8602 42.0109 83.8602 43.6721V56.776C83.8602 58.5628 84.9729 58.6693 86.5426 58.7576C90.374 58.9749 92.5997 55.5716 92.5997 50.0675C92.5997 44.5599 90.389 41.3253 86.6715 41.3253L86.6713 41.3249ZM46.4518 41.5169C43.0154 41.5169 40.8931 44.7957 40.8931 50.2302C40.8931 55.5427 42.9813 58.7585 46.5147 58.7585C49.952 58.7585 52.1074 55.417 52.1074 50.1714C52.1074 44.8588 49.919 41.5169 46.4518 41.5169ZM66.9621 41.5169C63.5246 41.5169 61.3982 44.7957 61.3982 50.2302C61.3982 55.5427 63.4917 58.7585 67.0239 58.7585C70.4581 58.7585 72.6133 55.417 72.6133 50.1714C72.6133 44.8588 70.4282 41.5169 66.9621 41.5169ZM86.6715 41.3253C86.6715 41.3253 85.9602 41.3732 85.6109 41.4286C84.2617 41.6459 83.8603 42.0111 83.8603 43.6723V56.7762C83.8603 58.5631 84.973 58.6696 86.5427 58.7579C90.3741 58.9751 92.5997 55.5718 92.5997 50.0677C92.5997 44.5601 90.3891 41.3255 86.6716 41.3255C86.6716 41.3255 85.9603 41.3734 85.611 41.4288C84.2618 41.6461 83.8604 42.0113 83.8604 43.6725V56.7764C83.8604 58.5633 84.9731 58.6698 86.5428 58.7581C90.3742 58.9753 92.5998 55.572 92.5998 50.0679C92.5998 44.5604 90.3892 41.3257 86.6717 41.3257L86.6715 41.3253ZM66.9622 41.5174C63.5248 41.5174 61.3983 44.7962 61.3983 50.2306C61.3983 55.5432 63.4918 58.7589 67.0241 58.7589C70.4583 58.7589 72.6135 55.4174 72.6135 50.1718C72.6135 44.8593 70.4284 41.5174 66.9622 41.5174ZM46.452 41.5174C43.0156 41.5174 40.8933 44.7962 40.8933 50.2306C40.8933 55.5432 42.9815 58.7589 46.5149 58.7589C49.9522 58.7589 52.1075 55.4174 52.1075 50.1718C52.1075 44.8593 49.9192 41.5174 46.452 41.5174ZM49.26 72.3135C49.2078 72.2177 48.4379 70.6257 48.3463 70.4266C48.2611 70.2498 48.0481 70.2391 47.9705 70.4342C47.882 70.6514 47.1228 72.1774 47.0717 72.2871C46.9865 72.4681 47.0823 72.5863 47.2559 72.5863H49.0715C49.2046 72.5863 49.3366 72.4681 49.2599 72.3137L49.26 72.3135ZM46.452 41.5176C43.0155 41.5176 40.8932 44.7964 40.8932 50.2308C40.8932 55.5434 42.9815 58.7591 46.5148 58.7591C49.9522 58.7591 52.1075 55.4176 52.1075 50.1721C52.1075 44.8595 49.9191 41.5176 46.452 41.5176ZM66.9622 41.5176C63.5247 41.5176 61.3983 44.7964 61.3983 50.2308C61.3983 55.5434 63.4918 58.7591 67.024 58.7591C70.4582 58.7591 72.6135 55.4176 72.6135 50.1721C72.6135 44.8595 70.4283 41.5176 66.9622 41.5176ZM86.6716 41.326C86.6716 41.326 85.9603 41.3739 85.611 41.4292C84.2618 41.6465 83.8604 42.0117 83.8604 43.673V56.7769C83.8604 58.5637 84.9731 58.6702 86.5429 58.7585C90.3742 58.9758 92.5999 55.5725 92.5999 50.0683C92.5999 44.5608 90.3892 41.3262 86.6717 41.3262C86.6717 41.3262 85.9604 41.3741 85.6111 41.4295C84.2619 41.6467 83.8605 42.0119 83.8605 43.6732V56.7771C83.8605 58.5639 84.9732 58.6704 86.5429 58.7587C90.3743 58.976 92.6 55.5726 92.6 50.0685C92.6 44.561 90.3893 41.3264 86.6718 41.3264L86.6716 41.326ZM66.9624 41.518C63.5249 41.518 61.3985 44.7968 61.3985 50.2312C61.3985 55.5438 63.4919 58.7596 67.0242 58.7596C70.4584 58.7596 72.6136 55.418 72.6136 50.1725C72.6136 44.8599 70.4285 41.518 66.9624 41.518ZM46.4521 41.518C43.0157 41.518 40.8934 44.7968 40.8934 50.2312C40.8934 55.5438 42.9816 58.7596 46.515 58.7596C49.9523 58.7596 52.1077 55.418 52.1077 50.1725C52.1077 44.8599 49.9193 41.518 46.4521 41.518ZM49.2601 72.3141C49.2079 72.2183 48.438 70.6264 48.3465 70.4272C48.2612 70.2504 48.0482 70.2398 47.9706 70.4348C47.8821 70.6521 47.1229 72.178 47.0718 72.2877C46.9866 72.4687 47.0824 72.5869 47.256 72.5869H49.0716C49.2047 72.5869 49.3367 72.4687 49.26 72.3143C49.2079 72.2185 48.438 70.6266 48.3464 70.4274C48.2612 70.2506 48.0482 70.24 47.9705 70.435C47.8821 70.6523 47.1229 72.1782 47.0718 72.288C46.9866 72.4689 47.0824 72.5872 47.2559 72.5872H49.0716C49.2047 72.5872 49.3367 72.4689 49.26 72.3146L49.2601 72.3141ZM46.452 41.5176C43.0156 41.5176 40.8933 44.7964 40.8933 50.2308C40.8933 55.5434 42.9815 58.7591 46.5149 58.7591C49.9522 58.7591 52.1076 55.4176 52.1076 50.1721C52.1076 44.8595 49.9192 41.5176 46.452 41.5176ZM61.0825 69.068H58.7685C58.529 69.068 58.2787 69.152 58.2787 69.4503V71.138C58.2787 71.4032 58.529 71.5576 58.7685 71.5576H61.0825C61.8599 71.5576 62.4934 71.1487 62.4934 70.3128C62.4934 69.4769 61.8597 69.068 61.0825 69.068ZM66.9627 41.5176C63.5253 41.5176 61.3988 44.7964 61.3988 50.2308C61.3988 55.5434 63.4923 58.7592 67.0245 58.7592C70.4587 58.7592 72.614 55.4176 72.614 50.1721C72.614 44.8595 70.4288 41.5176 66.9627 41.5176ZM86.6721 41.326C86.6721 41.326 85.9609 41.3739 85.6116 41.4293C84.2623 41.6466 83.8609 42.0118 83.8609 43.673V56.7769C83.8609 58.5637 84.9736 58.6702 86.5434 58.7585C90.3748 58.9758 92.6004 55.5724 92.6004 50.0684C92.6004 44.5608 90.3897 41.3262 86.6722 41.3262C86.6722 41.3262 85.9609 41.3741 85.6116 41.4295C84.2624 41.6468 83.861 42.012 83.861 43.6732V56.7771C83.861 58.564 84.9737 58.6704 86.5435 58.7587C90.3748 58.976 92.6005 55.5727 92.6005 50.0686C92.6005 44.561 90.3898 41.3264 86.6723 41.3264L86.6721 41.326ZM66.9629 41.5181C63.5254 41.5181 61.399 44.7968 61.399 50.2313C61.399 55.5439 63.4925 58.7596 67.0247 58.7596C70.4589 58.7596 72.6142 55.4181 72.6142 50.1725C72.6142 44.8599 70.429 41.5181 66.9629 41.5181ZM46.4525 41.5181C43.0162 41.5181 40.8939 44.7968 40.8939 50.2313C40.8939 55.5439 42.9821 58.7596 46.5155 58.7596C49.9528 58.7596 52.1082 55.4181 52.1082 50.1725C52.1082 44.8599 49.9198 41.5181 46.4525 41.5181ZM61.0831 69.0685H58.7691C58.5296 69.0685 58.2793 69.1525 58.2793 69.4507V71.1385C58.2793 71.4036 58.5296 71.5581 58.7691 71.5581H61.0831C61.8604 71.5581 62.494 71.1492 62.494 70.3133C62.494 69.4774 61.8603 69.0685 61.0831 69.0685ZM49.2604 72.3142C49.2082 72.2184 48.4384 70.6264 48.3468 70.4273C48.2616 70.2505 48.0486 70.2398 47.9709 70.4349C47.8825 70.6522 47.1232 72.1781 47.0722 72.2878C46.9869 72.4688 47.0828 72.587 47.2563 72.587H49.072C49.205 72.587 49.3371 72.4688 49.2604 72.3144C49.2082 72.2186 48.4383 70.6267 48.3468 70.4274C48.2615 70.2507 48.0485 70.2401 47.9709 70.4351C47.8824 70.6524 47.1232 72.1783 47.0721 72.288C46.9869 72.469 47.0827 72.5872 47.2563 72.5872H49.0719C49.205 72.5872 49.337 72.469 49.2603 72.3146L49.2604 72.3142ZM46.4524 41.5177C43.016 41.5177 40.8937 44.7964 40.8937 50.2309C40.8937 55.5435 42.9819 58.7592 46.5152 58.7592C49.9526 58.7592 52.1079 55.4177 52.1079 50.1721C52.1079 44.8596 49.9195 41.5177 46.4524 41.5177ZM61.0828 69.0681H58.7689C58.5293 69.0681 58.279 69.1521 58.279 69.4504V71.1381C58.279 71.4032 58.5293 71.5577 58.7689 71.5577H61.0828C61.8601 71.5577 62.4937 71.1488 62.4937 70.3129C62.4937 69.477 61.8601 69.0681 61.0828 69.0681ZM66.963 41.5177C63.5256 41.5177 61.3991 44.7965 61.3991 50.2309C61.3991 55.5435 63.4926 58.7593 67.0249 58.7593C70.4591 58.7593 72.6143 55.4177 72.6143 50.1722C72.6143 44.8596 70.4292 41.5177 66.963 41.5177ZM86.6725 41.3261C86.6725 41.3261 85.9612 41.374 85.6119 41.4294C84.2627 41.6466 83.8613 42.0118 83.8613 43.6731V56.777C83.8613 58.5638 84.974 58.6703 86.5437 58.7586C90.3751 58.9759 92.6007 55.5725 92.6007 50.0685C92.6007 44.5609 90.3901 41.3263 86.6726 41.3263C86.6726 41.3263 85.9613 41.3742 85.612 41.4296C84.2628 41.6468 83.8614 42.0121 83.8614 43.6733V56.7772C83.8614 58.564 84.974 58.6705 86.5438 58.7588C90.3752 58.9761 92.6008 55.5728 92.6008 50.0687C92.6008 44.5611 90.3901 41.3265 86.6727 41.3265L86.6725 41.3261ZM66.9632 41.5181C63.5258 41.5181 61.3993 44.797 61.3993 50.2314C61.3993 55.5439 63.4928 58.7597 67.025 58.7597C70.4593 58.7597 72.6145 55.4182 72.6145 50.1726C72.6145 44.86 70.4294 41.5181 66.9632 41.5181ZM46.4529 41.5181C43.0166 41.5181 40.8943 44.797 40.8943 50.2314C40.8943 55.5439 42.9825 58.7597 46.5158 58.7597C49.9532 58.7597 52.1085 55.4182 52.1085 50.1726C52.1085 44.86 49.9201 41.5181 46.4529 41.5181ZM61.0834 69.0685H58.7695C58.5299 69.0685 58.2796 69.1526 58.2796 69.4508V71.1386C58.2796 71.4037 58.5299 71.5582 58.7695 71.5582H61.0834C61.8607 71.5582 62.4943 71.1493 62.4943 70.3134C62.4943 69.4775 61.8607 69.0686 61.0834 69.0686V69.0685ZM49.2608 72.3143C49.2086 72.2185 48.4387 70.6265 48.3472 70.4274C48.2619 70.2506 48.0489 70.2399 47.9713 70.435C47.8828 70.6522 47.1236 72.1782 47.0725 72.2879C46.9873 72.4689 47.0831 72.5871 47.2567 72.5871H49.0723C49.2054 72.5871 49.3374 72.4689 49.2607 72.3145L49.2608 72.3143ZM112.944 60.3735C112.944 60.1562 112.727 60.104 112.513 60.104H112.219V60.6386H112.44C112.709 60.6386 112.944 60.6237 112.944 60.3735ZM112.944 61.7067L112.399 60.9368H112.215V61.7067H111.89V59.8059H112.604C113.051 59.8059 113.253 59.9827 113.253 60.3736C113.253 60.7526 113.043 60.8995 112.768 60.9293L113.319 61.7067H112.944ZM112.505 59.496C111.772 59.496 111.227 60.0455 111.227 60.8037C111.227 61.5629 111.772 62.1081 112.505 62.1081C113.242 62.1081 113.784 61.5629 113.784 60.8037C113.784 60.0455 113.242 59.496 112.505 59.496ZM48.3424 70.4267C48.2572 70.25 48.0442 70.2393 47.9665 70.4343C47.8781 70.6516 47.1188 72.1775 47.0678 72.2873C46.9825 72.4682 47.0784 72.5865 47.2519 72.5865H49.0676C49.2007 72.5865 49.3327 72.4682 49.256 72.3139C49.2038 72.2181 48.4339 70.6261 48.3424 70.427V70.4267ZM46.448 41.5178C43.0115 41.5178 40.8893 44.7965 40.8893 50.231C40.8893 55.5436 42.9774 58.7593 46.5108 58.7593C49.9482 58.7593 52.1035 55.4178 52.1035 50.1722C52.1035 44.8597 49.9151 41.5178 46.448 41.5178ZM61.0784 69.0682H58.7645C58.5249 69.0682 58.2746 69.1522 58.2746 69.4504V71.1382C58.2746 71.4033 58.5249 71.5578 58.7645 71.5578H61.0784C61.8558 71.5578 62.4893 71.1489 62.4893 70.3129C62.4893 69.4769 61.8557 69.0681 61.0784 69.0681V69.0682ZM66.9586 41.5177C63.5212 41.5177 61.3947 44.7965 61.3947 50.2309C61.3947 55.5435 63.4882 58.7593 67.0204 58.7593C70.4546 58.7593 72.6099 55.4177 72.6099 50.1722C72.6099 44.8596 70.4248 41.5177 66.9586 41.5177ZM92.5965 50.0691C92.5965 44.5616 90.3858 41.3269 86.6683 41.3269C86.6683 41.3269 85.957 41.3748 85.6077 41.4302C84.2585 41.6475 83.8571 42.0127 83.8571 43.674V56.7779C83.8571 58.5647 84.9698 58.6712 86.5395 58.7595C90.3709 58.9767 92.5965 55.5734 92.5965 50.0693V50.0691ZM114.167 34.9056C114.042 35.4795 113.684 35.6904 113.054 35.6904L112.255 35.6938H99.9897C98.9364 35.6938 98.5787 35.484 98.5787 34.7875C98.5787 34.3275 98.9364 33.9474 99.356 33.9474H99.9897C100.207 33.9474 100.425 33.7556 100.491 33.5459C100.587 33.2914 100.613 33.137 100.613 32.2936V18.3088C100.613 17.4985 100.587 17.3355 100.491 17.0822C100.425 16.8053 100.174 16.6178 99.9897 16.6178H99.356C98.9364 16.6178 98.553 16.2089 98.553 15.7447C98.553 15.0515 98.9364 14.8267 99.9897 14.8267H112.475C113.106 14.8267 113.459 15.0376 113.587 15.6115L114.03 17.786C114.199 18.5889 113.915 19.0203 113.345 19.0203C113.043 19.0203 112.752 18.9425 112.541 18.5336C112.504 18.4708 112.376 18.2429 112.232 17.8595C111.926 17.0556 111.296 16.9565 109.84 16.9565H106.894C105.188 16.9565 104.996 17.1812 104.996 18.8425V22.5567C104.996 23.2563 105.095 23.5619 105.283 23.6877C105.428 23.7867 105.659 23.809 106.556 23.809H108.009C109.322 23.809 109.509 23.7132 109.605 23.087L109.628 22.8953C109.723 22.3651 110.004 22.1148 110.475 22.1148C111.13 22.1148 111.348 22.4864 111.348 23.5844V26.2113C111.348 27.3051 111.13 27.6809 110.475 27.6809C110.004 27.6809 109.723 27.3976 109.628 26.8674L109.595 26.6607C109.502 26.0347 109.315 25.942 107.999 25.942H106.556C105.66 25.942 105.428 25.9644 105.284 26.0634C105.095 26.189 104.996 26.4914 104.996 27.1954V31.1588C104.996 32.8136 105.095 33.1629 105.589 33.3546C105.991 33.5058 106.425 33.5718 107.45 33.5718L110.559 33.5642C111.675 33.5642 112.465 33.2149 112.85 32.4045C113.028 32.0361 113.083 31.8956 113.121 31.8327C113.33 31.4238 113.661 31.2439 113.967 31.2439C114.535 31.2439 114.815 31.6751 114.648 32.4781L114.166 34.906L114.167 34.9056ZM112.505 62.4337C111.602 62.4337 110.88 61.7043 110.88 60.8045C110.88 59.8982 111.602 59.1731 112.505 59.1731C113.404 59.1731 114.131 59.8983 114.131 60.8045C114.131 61.7043 113.404 62.4337 112.505 62.4337ZM105.222 61.0229C104.068 61.0229 102.831 60.8599 101.939 60.5799C101.489 60.4584 101.438 60.4254 101.261 60.4254C100.996 60.4254 100.863 60.4883 100.595 60.7353C100.3 60.9601 100.145 61.0229 99.868 61.0229C99.3456 61.0229 99.088 60.7353 98.9037 59.9868L98.1146 56.8592C98.0561 56.6719 98.0337 56.3875 98.0337 56.2331C98.0337 55.6773 98.465 55.2567 99.0209 55.2567C99.3456 55.2567 99.6141 55.4228 99.8052 55.6774L100.255 56.296C101.338 57.8251 103.089 58.7718 104.876 58.7718C106.906 58.7718 108.291 57.6366 108.291 55.9829C108.291 55.1352 107.941 54.3877 107.274 53.6359C106.597 52.8883 105.756 52.1994 103.958 50.9502C100.997 48.8759 100.72 48.6875 99.7474 47.5682C98.9593 46.6546 98.5567 45.5343 98.5567 44.2852C98.5567 41.2535 100.863 39.2495 104.308 39.2495C105.192 39.2495 106.095 39.3336 107.005 39.5295C107.1 39.5626 107.354 39.6211 107.796 39.7212C107.941 39.7499 108.103 39.783 108.225 39.783C108.431 39.783 108.67 39.6808 108.943 39.4997C109.252 39.275 109.352 39.2495 109.603 39.2495C110.063 39.2495 110.358 39.5625 110.483 40.1227L111.231 43.5047C111.286 43.6517 111.286 43.8401 111.286 43.9391C111.286 44.348 110.921 44.6867 110.388 44.6867C110.052 44.6867 109.845 44.5621 109.558 44.1607C108.854 43.0958 108.722 42.9732 108.069 42.4696C107.23 41.8137 106.154 41.4634 105.13 41.4634C103.685 41.4634 102.75 42.2854 102.75 43.5675C102.75 44.0276 102.831 44.5025 103.089 44.8486C103.405 45.3203 103.906 45.8145 104.526 46.2862C104.911 46.562 105.406 46.9198 106.072 47.3842C108.541 49.104 109.352 49.7311 110.358 50.7587C111.415 51.8523 112.049 53.4145 112.049 55.0213C112.049 58.6356 109.352 61.023 105.222 61.023V61.0229ZM97.3266 69.0829H95.5067C95.2565 69.0829 95.0755 69.1649 95.0755 69.4663L95.0862 74.9074C95.0862 75.2913 94.8136 75.3361 94.3865 75.3361C93.9744 75.3361 93.6976 75.2943 93.6976 74.9223V69.4738C93.6976 69.2087 93.6017 69.083 93.2705 69.083H91.4283C91.1301 69.083 91.045 68.7966 91.045 68.557C91.045 68.2918 91.0225 67.7796 91.4177 67.7796H97.2968C97.5619 67.7796 97.7387 67.9266 97.7387 68.4132C97.7387 68.8444 97.6247 69.083 97.3266 69.083V69.0829ZM82.2063 70.7666H84.8035C85.1166 70.7666 85.1986 71.0402 85.1986 71.4374C85.1986 71.7835 85.124 72.0858 84.8333 72.0858H82.2435C82.037 72.0858 81.8496 72.2296 81.8496 72.4692V73.5704C81.8496 73.8355 81.9934 73.9611 82.2063 73.9611H86.6607C86.9557 73.9611 87.059 74.1561 87.059 74.6432C87.059 74.9931 86.978 75.2803 86.6649 75.2803H80.9284C80.5962 75.2803 80.4599 75.1218 80.4599 74.7279V68.2652C80.4599 67.9713 80.5781 67.7647 80.921 67.7647H86.6756C87.0184 67.7647 87.0802 67.9926 87.0802 68.4015C87.0802 68.7816 87.0291 69.083 86.6575 69.083H82.1584C81.9785 69.083 81.8496 69.2235 81.8496 69.4185V70.4354C81.8496 70.6495 82.004 70.7666 82.2063 70.7666H82.2063ZM77.4804 59.5854C77.4804 59.1137 77.7935 58.7166 78.2237 58.7166H78.8616C79.0756 58.7166 79.2886 58.5504 79.3919 58.3076C79.4547 58.0829 79.4877 57.8944 79.4877 57.0766V43.1549C79.4877 42.3403 79.4547 42.1497 79.3919 41.924C79.2886 41.6855 79.0756 41.5151 78.8616 41.5151H78.2237C77.7935 41.5151 77.4804 41.1178 77.4804 40.6461C77.4804 39.9645 77.9512 39.8687 78.8615 39.7324C79.7752 39.5993 82.3245 39.2501 86.2262 39.2501C90.1236 39.2501 92.544 40.0966 94.4598 42.0347C96.2989 43.8812 97.2966 46.7245 97.2966 50.1032C97.2966 53.8866 96.022 57.0142 93.7016 58.8607C91.8998 60.3196 89.638 60.9831 86.2262 60.9831C82.3245 60.9831 79.7752 60.6327 78.8615 60.4996C77.9511 60.3676 77.4804 60.2718 77.4804 59.5859V59.5854ZM66.9246 61.0118C61.8814 61.0118 58.271 58.1644 57.1108 53.5736C57.0958 53.5406 57.0852 53.5076 57.0778 53.4703C56.9745 52.955 56.5102 52.9177 56.3995 53.4669C56.3995 53.4851 56.3846 53.5031 56.377 53.5224C55.2057 58.179 51.5766 61.0116 46.415 61.0116C40.2292 61.0116 36.2024 56.7308 36.2024 50.2019C36.2024 43.5198 40.2 39.2679 46.4772 39.2679C51.6312 39.2679 55.2976 42.1419 56.4205 46.8274C56.5387 47.3651 56.9955 47.3246 57.0945 46.8135C57.0945 46.8058 57.0945 46.7986 57.1052 46.7944C58.251 42.1078 61.8578 39.2679 66.9889 39.2679C73.2376 39.2679 77.2969 43.4857 77.2969 50.0477C77.2969 56.7308 73.2674 61.0116 66.9259 61.0116L66.9246 61.0118ZM75.5845 75.3401C74.951 75.3401 74.7774 75.2404 74.6155 75.045L72.2099 72.4772C71.8819 72.1929 71.554 72.1493 71.1046 72.1493C70.8533 72.1493 70.6584 72.407 70.6584 72.7052V74.8934C70.6584 75.3102 70.3017 75.3361 69.9108 75.3361C69.4977 75.3361 69.2805 75.2215 69.2805 74.8904V68.2104C69.2805 67.8164 69.5275 67.7504 70.0141 67.7504C70.3975 67.7504 70.6584 67.8387 70.6584 68.1998V70.2156C70.6584 70.5392 70.8064 70.6979 71.0088 70.6979C71.5945 70.6979 71.7201 70.5722 71.9374 70.3849C72.1801 70.1783 74.6485 67.9122 74.6485 67.9122C74.9583 67.647 75.2714 67.6513 75.5696 67.9378C75.8167 68.1742 75.9263 68.4393 75.6505 68.7119C75.4588 68.8994 73.2929 70.8597 73.2929 70.8597C73.0234 71.0918 73.0905 71.3091 73.2747 71.5114C73.2747 71.5114 75.8752 74.3779 76.1478 74.6731C76.5566 75.1178 76.1807 75.3401 75.5844 75.3401H75.5845ZM62.3647 72.9151C62.4243 73.0045 63.4775 74.5325 63.6319 74.7618C63.864 75.1078 63.6543 75.3361 62.9365 75.3361C62.5351 75.3361 62.2657 75.2663 62.0921 75.0081L60.925 73.195C60.7918 72.9927 60.6002 72.8638 60.3383 72.8638H58.6696C58.4673 72.8638 58.2755 73.03 58.2755 73.2323L58.2862 75.042C58.2862 75.398 57.594 75.3401 57.3662 75.3401C57.0669 75.3401 56.9019 75.2544 56.9019 74.9203L56.9125 68.0411C56.9125 67.8611 57.0669 67.7536 57.233 67.7536H61.1901C62.7183 67.7536 63.8683 68.7375 63.8683 70.3146C63.8683 71.6775 62.8844 72.1238 62.4903 72.4581C62.2955 72.6285 62.2475 72.7456 62.3647 72.915V72.9151ZM51.2432 75.3391C51.0142 75.3391 50.6681 75.3022 50.5606 75.052L50.0751 74.0469C50.0121 73.9138 49.8833 73.8073 49.7247 73.8073H46.6259C46.431 73.8073 46.2542 73.9541 46.1435 74.231L45.7133 75.052C45.6175 75.2913 45.1489 75.3292 44.9317 75.3292C44.74 75.3292 44.1106 75.3062 44.3088 74.8864L47.5992 68.0601C47.6908 67.861 47.8644 67.7098 48.1743 67.7098C48.4831 67.7098 48.6524 67.8131 48.7557 68.0335C48.7557 68.0335 51.8981 74.7319 51.9864 74.9273C52.1494 75.2763 51.471 75.3391 51.2432 75.3391ZM39.332 75.3391C39.1403 75.3391 38.7836 75.2334 38.7836 74.9822L38.2533 70.9704C38.2192 70.8043 38.1574 70.7308 38.0243 70.7308C37.9179 70.7308 37.8624 70.7819 37.7889 70.8746L35.9872 73.1811C35.8945 73.3056 35.7732 73.3834 35.6294 73.3834C35.4239 73.3834 35.3344 73.3311 35.2173 73.1586L33.5594 70.9224C33.4859 70.8298 33.4049 70.8043 33.3198 70.8043C33.1876 70.8043 33.1206 70.9224 33.1025 71.0769L32.5829 74.9562C32.5349 75.2763 32.141 75.3391 31.8161 75.3391C31.5915 75.3391 31.2092 75.2334 31.2092 74.9453L31.9716 68.4062C32.0525 68.0154 32.1367 67.7908 32.7011 67.7908C32.8448 67.7908 33.077 67.8313 33.257 68.1113L35.3164 71.0067C35.4272 71.1654 35.5528 71.2985 35.6891 71.2942C35.8254 71.2908 35.9649 71.1505 36.0831 70.9961L38.2565 68.041C38.3896 67.8386 38.5919 67.7535 38.8315 67.7535C39.0924 67.7535 39.284 67.8131 39.3948 68.2518L40.1573 74.9562C40.1946 75.3391 39.5939 75.3391 39.332 75.3391ZM26.3755 57.1448C26.3755 57.9882 26.3755 58.1394 26.449 58.3598C26.5811 58.6101 26.8654 58.773 27.1156 58.773H27.8227C28.3125 58.773 28.6522 59.1744 28.6522 59.6462C28.6522 60.3352 28.2689 60.5524 27.1155 60.5524H21.361C20.2929 60.5524 19.9171 60.3352 19.9171 59.6462C19.9171 59.1744 20.2929 58.773 20.7231 58.773H21.361C21.574 58.773 21.7848 58.6101 21.8881 58.3598C21.9541 58.1393 21.9872 57.9882 21.9872 57.1448V43.1584C21.9872 42.348 21.9615 42.1862 21.8614 41.9359C21.7954 41.659 21.5453 41.4674 21.361 41.4674H20.7274C20.3067 41.4674 19.9244 41.0628 19.9244 40.5952C19.9244 39.9062 20.3067 39.6815 21.361 39.6815H34.9188C35.5482 39.6815 35.9061 39.8913 36.0306 40.4653L36.4736 42.6398C36.6429 43.4384 36.3586 43.874 35.791 43.874C35.4854 43.874 35.1946 43.7931 34.985 43.3841C34.9476 43.3245 34.823 43.0924 34.675 42.7133C34.3694 41.9103 33.739 41.807 32.2845 41.807H28.2688C26.5597 41.807 26.368 42.0349 26.368 43.6929V47.4105C26.368 48.1101 26.467 48.4125 26.6588 48.5413C26.8024 48.6414 27.0304 48.6628 27.9302 48.6628H30.5157C31.8276 48.6628 32.015 48.5669 32.1109 47.9408L32.1333 47.7459C32.2291 47.2155 32.5091 46.9643 32.9767 46.9643C33.6368 46.9643 33.8541 47.3402 33.8541 48.4348V51.065C33.8541 52.1597 33.6368 52.5346 32.9767 52.5346C32.5091 52.5346 32.2291 52.2513 32.1333 51.721L32.1002 51.5144C32.0076 50.8883 31.8201 50.7924 30.505 50.7924H27.9302C27.0304 50.7924 26.8024 50.8148 26.6587 50.9138C26.467 51.0427 26.368 51.3451 26.368 52.049L26.3787 57.1443L26.3755 57.1448ZM16.0812 18.1143C15.6136 16.829 15.4657 16.6747 14.4636 16.4574C13.797 16.3349 13.5904 16.1177 13.5904 15.6129C13.5904 15.0827 13.9226 14.8026 14.6403 14.8026H21.0987C21.8101 14.8026 22.1263 15.0827 22.1263 15.6459C22.1263 16.1731 21.81 16.3871 20.9996 16.4574C20.3107 16.5191 20.0306 16.7407 20.0306 17.2379C20.0306 17.452 20.0562 17.6767 20.1446 17.9343L20.3916 18.6488C20.3916 18.6488 23.8439 28.4269 24.3891 29.9996C24.4808 30.2509 24.765 30.2392 24.8609 29.9591C25.4679 28.2169 27.1184 23.424 27.178 23.2291C27.3474 22.6765 27.4208 22.094 27.2216 21.4561C27.1524 21.2315 26.095 18.1146 26.095 18.1146C25.9768 17.776 25.9065 17.5257 25.8362 17.3969C25.6521 16.94 25.3986 16.7739 24.6767 16.5822C24.0314 16.4236 23.7843 16.2106 23.7843 15.7463C23.7843 15.1457 24.1453 14.8029 24.8747 14.8029H31.0126C31.724 14.8029 32.07 15.0829 32.07 15.6462C32.07 16.1435 31.7537 16.3874 31.0573 16.4864C30.2245 16.5822 29.9999 16.7739 29.9999 17.334C29.9999 17.6173 30.0627 17.8973 30.3204 18.6491C30.3204 18.6491 33.3489 28.2322 33.8281 29.7391C33.9197 30.0224 34.1892 29.9596 34.2657 29.7093C34.7375 28.177 37.733 18.1151 37.733 18.1151C37.8213 17.802 37.8543 17.5517 37.8543 17.3643C37.8543 16.8957 37.5189 16.6455 36.7597 16.5497C36.0707 16.4868 35.7544 16.1738 35.7544 15.6764C35.7544 15.0504 36.1123 14.8033 36.9439 14.8033H47.7834C48.8152 14.8033 49.1571 15.0131 49.1571 15.6988C49.1571 16.211 48.8153 16.5826 48.384 16.5826H47.7834C47.5257 16.5826 47.2818 16.7744 47.186 16.9809C47.1274 17.2131 47.102 17.4303 47.102 18.2109V22.2456C47.102 23.6896 47.2265 23.811 48.3841 23.811H52.6318C53.2537 23.811 53.5752 23.712 53.7329 23.5309C53.8766 23.3393 53.8766 23.2178 53.8766 22.0572V18.2108C53.8766 17.3973 53.8766 17.2131 53.8 16.9809C53.6892 16.7413 53.4421 16.5826 53.2281 16.5826H52.6318C52.16 16.5826 51.7809 16.211 51.7809 15.6988C51.7809 15.013 52.16 14.8033 53.2281 14.8033H58.9136C59.9774 14.8033 60.3575 15.0131 60.3575 15.6988C60.3575 16.211 59.9773 16.5826 59.5503 16.5826H58.9136C58.6995 16.5826 58.4492 16.7743 58.3821 16.9809C58.2938 17.213 58.2724 17.4303 58.2724 18.2108V32.2553C58.2724 33.0688 58.2938 33.253 58.3821 33.5075C58.4493 33.7247 58.6995 33.8801 58.9136 33.8801H59.5503C60.0146 33.8801 60.3575 34.2891 60.3575 34.7523C60.3575 35.4456 60.0146 35.6596 58.9136 35.6596H53.2281C52.16 35.6596 51.8215 35.4456 51.8215 34.7523C51.8215 34.2892 52.2006 33.8801 52.6319 33.8801H53.2281C53.4422 33.8801 53.6893 33.7247 53.8 33.5075C53.8767 33.253 53.8767 33.0688 53.8767 32.2553V27.6901C53.8767 26.5293 53.8767 26.408 53.733 26.2205C53.5753 26.0364 53.2538 25.9362 52.6319 25.9362H48.3842C47.2266 25.9362 47.1021 26.0587 47.1021 27.5027V32.2553C47.1021 33.0688 47.1276 33.253 47.1861 33.5075C47.282 33.7248 47.5258 33.8802 47.7835 33.8802H48.3841C48.8154 33.8802 49.1359 34.2892 49.1359 34.7896C49.1359 35.4456 48.7781 35.6596 47.7835 35.6596H42.0843C41.0343 35.6596 40.6541 35.4455 40.6541 34.7523C40.6541 34.2891 41.0343 33.8801 41.4645 33.8801H42.0843C42.3047 33.8801 42.5624 33.7247 42.622 33.5074C42.7179 33.253 42.7179 33.0911 42.7179 32.2552V18.2108C42.7179 16.6156 41.9692 16.5091 41.4208 16.5826C40.8682 16.6604 40.5445 17.0107 40.2047 18.1151L35.2202 34.1639C34.7708 35.6931 34.347 36.1307 33.412 36.1307C32.4792 36.1307 32.0043 35.7261 31.6283 34.5686C31.6283 34.5686 29.0534 26.8695 28.9683 26.6151C28.8798 26.3606 28.6147 26.3531 28.5412 26.5969C28.471 26.8429 25.7001 34.5686 25.7001 34.5686C25.3988 35.3172 25.321 35.5345 25.0666 35.7889C24.8206 35.9732 24.4106 36.1307 24.0017 36.1307C23.0955 36.1307 22.6505 35.7548 22.2191 34.5686L16.0812 18.115V18.1143ZM57.5907 8.6463C58.6364 4.76274 62.4123 0.842985 66.5867 2.04092C70.1273 3.0504 69.8771 5.97563 72.452 6.89248C73.3763 7.22043 73.3028 8.14904 72.4968 8.30339C71.1369 8.56104 69.3021 7.5739 67.9316 6.3323C66.329 4.87761 63.7243 4.94042 62.4528 5.90842C61.897 6.3323 62.1802 6.73792 62.6893 6.62405C63.8681 6.36949 65.8648 6.30348 67.4013 8.02749C68.9112 9.72178 71.7257 11.2359 74.2165 9.611C74.9022 9.16589 75.3473 8.24476 76.0438 8.44388C76.7881 8.65368 76.7988 9.73664 75.8233 10.9964C73.52 13.9663 71.1592 13.6127 68.6281 16.0917C66.1001 18.5708 65.589 21.3895 65.589 24.9702C65.589 30.5225 67.773 33.8853 71.4648 33.8853C75.0566 33.8853 77.311 30.3935 77.311 24.9046C77.311 20.38 76.2397 17.4548 73.5531 16.423C72.253 15.9406 72.4744 14.6702 74.1505 14.4711C75.5316 14.3092 76.8841 14.7799 78.3685 15.8746C80.9294 17.7605 82.2072 20.7592 82.2072 24.7761C82.2072 31.7649 77.9967 36.2375 71.3694 36.2375C64.9002 36.2375 60.6883 31.7651 60.6883 24.9379C60.6883 20.5464 62.3389 17.1643 65.1938 15.2562C66.3875 14.3637 68.4065 13.3361 70.3852 12.6664C70.7941 12.5258 70.7908 11.7996 70.0646 11.9402C69.1989 12.1137 67.6069 12.2383 66.2917 11.7079C63.341 10.5441 62.4827 8.46223 59.009 9.95411C57.9622 10.4035 57.2882 9.76665 57.5906 8.6464L57.5907 8.6463ZM83.9909 14.828H89.7678C90.8944 14.828 91.2778 15.0527 91.2778 15.7458C91.2778 16.2432 90.8944 16.6191 90.4493 16.6191H89.7678C89.4803 16.6191 89.2002 16.7735 89.1119 17.0279C89.0192 17.2377 89.0192 17.4295 89.0192 18.244V31.3769C89.0192 32.7517 89.0789 33.0722 89.4473 33.2852C89.7678 33.5066 90.2459 33.5652 91.5024 33.5652H93.2637C94.3797 33.5652 95.1687 33.216 95.5554 32.4056C95.7321 32.0329 95.7875 31.8966 95.8237 31.8338C96.0345 31.4249 96.3658 31.2406 96.6682 31.2406C97.2389 31.2406 97.519 31.6761 97.3529 32.4791L96.8705 34.9071C96.7449 35.481 96.3881 35.6918 95.7577 35.6918H83.9913C82.9488 35.6918 82.606 35.4853 82.606 34.7888C82.606 34.3288 82.9489 33.9487 83.3865 33.9487H83.9914C84.198 33.9487 84.4513 33.757 84.5143 33.5472C84.6069 33.3151 84.6356 33.1638 84.6356 32.3834V18.2435C84.6356 17.3992 84.6069 17.2745 84.5143 17.0274C84.4513 16.773 84.198 16.6185 83.9914 16.6185H83.3865C82.9159 16.6185 82.5357 16.2427 82.5357 15.7453C82.5357 15.0522 82.9159 14.8274 83.9914 14.8274L83.9909 14.828ZM64.4728 -25.4622C28.8652 -25.4622 0.000366211 3.40348 0.000366211 39.0102C0.000366211 74.6182 28.8661 103.483 64.4728 103.483C100.084 103.483 128.945 74.6172 128.945 39.0102C128.945 3.40268 100.083 -25.4622 64.4728 -25.4622ZM112.941 60.375C112.941 60.1577 112.724 60.1055 112.51 60.1055H112.216V60.6401H112.437C112.706 60.6401 112.941 60.6252 112.941 60.375ZM112.941 61.7082L112.396 60.9383H112.212V61.7082H111.887V59.8074H112.602C113.048 59.8074 113.25 59.9842 113.25 60.375C113.25 60.7541 113.041 60.901 112.765 60.9308L113.316 61.7082H112.941ZM112.502 59.4975C111.769 59.4975 111.224 60.047 111.224 60.8052C111.224 61.5644 111.769 62.1096 112.502 62.1096C113.239 62.1096 113.781 61.5644 113.781 60.8052C113.781 60.047 113.239 59.4975 112.502 59.4975ZM49.2536 72.3152C49.2015 72.2193 48.4315 70.6274 48.34 70.4281C48.2548 70.2515 48.0418 70.2408 47.9641 70.4358C47.8757 70.6531 47.1164 72.179 47.0654 72.2888C46.9801 72.4697 47.0759 72.588 47.2495 72.588H49.0651C49.1982 72.588 49.3302 72.4697 49.2536 72.3154V72.3152ZM61.0762 69.0696H58.7623C58.5227 69.0696 58.2724 69.1537 58.2724 69.4519V71.1397C58.2724 71.4048 58.5227 71.5593 58.7623 71.5593H61.0762C61.8536 71.5593 62.4871 71.1504 62.4871 70.3145C62.4871 69.4786 61.8536 69.0697 61.0762 69.0697V69.0696ZM46.4458 41.5193C43.0093 41.5193 40.8872 44.7981 40.8872 50.2325C40.8872 55.5451 42.9753 58.7609 46.5086 58.7609C49.946 58.7609 52.1013 55.4193 52.1013 50.1738C52.1013 44.8612 49.9129 41.5193 46.4458 41.5193ZM66.956 41.5193C63.5186 41.5193 61.3921 44.7981 61.3921 50.2325C61.3921 55.5451 63.4856 58.7609 67.0178 58.7609C70.452 58.7609 72.6073 55.4193 72.6073 50.1738C72.6073 44.8612 70.4222 41.5193 66.956 41.5193ZM86.6654 41.3277C86.6654 41.3277 85.9542 41.3755 85.6049 41.431C84.2556 41.6482 83.8543 42.0134 83.8543 43.6747V56.7786C83.8543 58.5654 84.967 58.6719 86.5367 58.7602C90.3681 58.9775 92.5937 55.5742 92.5937 50.0701C92.5937 44.5625 90.383 41.3279 86.6655 41.3279L86.6654 41.3277ZM112.937 60.3755C112.937 60.1582 112.72 60.106 112.506 60.106H112.212V60.6406H112.433C112.702 60.6406 112.937 60.6257 112.937 60.3755ZM112.937 61.7087L112.392 60.9387H112.207V61.7087H111.883V59.8079H112.597C113.044 59.8079 113.246 59.9847 113.246 60.3755C113.246 60.7545 113.036 60.9015 112.761 60.9313L113.312 61.7087H112.937ZM112.498 59.498C111.765 59.498 111.219 60.0475 111.219 60.8056C111.219 61.5649 111.765 62.11 112.498 62.11C113.235 62.11 113.777 61.5648 113.777 60.8056C113.777 60.0475 113.235 59.498 112.498 59.498ZM86.6614 41.3279C86.6614 41.3279 85.95 41.3757 85.6007 41.4312C84.2514 41.6484 83.8501 42.0136 83.8501 43.6749V56.7788C83.8501 58.5656 84.9628 58.6721 86.5325 58.7604C90.3639 58.9777 92.5895 55.5743 92.5895 50.0703C92.5895 44.5627 90.3788 41.3281 86.6614 41.3281V41.3279ZM66.9519 41.5197C63.5146 41.5197 61.388 44.7985 61.388 50.2329C61.388 55.5455 63.4816 58.7613 67.0137 58.7613C70.4479 58.7613 72.6032 55.4197 72.6032 50.1742C72.6032 44.8616 70.4181 41.5197 66.9519 41.5197ZM61.0717 69.0701H58.7577C58.5182 69.0701 58.2679 69.1541 58.2679 69.4524V71.1402C58.2679 71.4053 58.5182 71.5598 58.7577 71.5598H61.0717C61.8491 71.5598 62.4826 71.1509 62.4826 70.315C62.4826 69.4791 61.849 69.0702 61.0717 69.0702V69.0701ZM46.4412 41.5198C43.0048 41.5198 40.8826 44.7985 40.8826 50.233C40.8826 55.5456 42.9707 58.7613 46.5041 58.7613C49.9416 58.7613 52.0968 55.4198 52.0968 50.1742C52.0968 44.8617 49.9084 41.5198 46.4412 41.5198ZM49.2493 72.3159C49.1971 72.2201 48.4271 70.6281 48.3356 70.4289C48.2504 70.2522 48.0375 70.2415 47.9597 70.4366C47.8713 70.6538 47.112 72.1798 47.061 72.2895C46.9757 72.4705 47.0716 72.5887 47.2452 72.5887H49.0607C49.1938 72.5887 49.3258 72.4705 49.2493 72.3161C49.1971 72.2203 48.4271 70.6283 48.3355 70.4291C48.2503 70.2524 48.0374 70.2417 47.9597 70.4368C47.8712 70.654 47.112 72.18 47.0609 72.2897C46.9757 72.4707 47.0716 72.5889 47.2452 72.5889H49.0607C49.1938 72.5889 49.3258 72.4707 49.2492 72.3163L49.2493 72.3159ZM61.0718 69.0706H58.7578C58.5182 69.0706 58.268 69.1546 58.268 69.4529V71.1407C58.268 71.4058 58.5182 71.5602 58.7578 71.5602H61.0718C61.8492 71.5602 62.4826 71.1513 62.4826 70.3154C62.4826 69.4795 61.8491 69.0706 61.0718 69.0706ZM46.4413 41.5194C43.0049 41.5194 40.8827 44.7982 40.8827 50.2326C40.8827 55.5452 42.9708 58.7609 46.5042 58.7609C49.9416 58.7609 52.0969 55.4194 52.0969 50.1739C52.0969 44.8613 49.9085 41.5194 46.4413 41.5194ZM66.9516 41.5194C63.5142 41.5194 61.3876 44.7982 61.3876 50.2326C61.3876 55.5452 63.4813 58.7609 67.0134 58.7609C70.4476 58.7609 72.6028 55.4194 72.6028 50.1739C72.6028 44.8613 70.4178 41.5194 66.9516 41.5194ZM86.661 41.3278C86.661 41.3278 85.9497 41.3756 85.6004 41.431C84.2512 41.6483 83.8498 42.0135 83.8498 43.6748V56.7787C83.8498 58.5655 84.9626 58.672 86.5322 58.7603C90.3636 58.9776 92.5892 55.5742 92.5892 50.0701C92.5892 44.5626 90.3786 41.328 86.6612 41.328C86.6612 41.328 85.9498 41.3759 85.6005 41.4313C84.2513 41.6485 83.8499 42.0137 83.8499 43.675V56.7789C83.8499 58.5657 84.9627 58.6722 86.5323 58.7605C90.3637 58.9778 92.5893 55.5744 92.5893 50.0704C92.5893 44.5628 90.3787 41.3282 86.6613 41.3282L86.661 41.3278ZM66.9517 41.5198C63.5144 41.5198 61.3878 44.7986 61.3878 50.233C61.3878 55.5456 63.4814 58.7614 67.0136 58.7614C70.4478 58.7614 72.6031 55.4198 72.6031 50.1743C72.6031 44.8617 70.418 41.5198 66.9517 41.5198ZM61.0715 69.0702H58.7576C58.518 69.0702 58.2677 69.1542 58.2677 69.4525V71.1403C58.2677 71.4054 58.518 71.5598 58.7576 71.5598H61.0715C61.8489 71.5598 62.4824 71.1509 62.4824 70.315C62.4824 69.4791 61.8489 69.0702 61.0715 69.0702ZM46.4411 41.5199C43.0046 41.5199 40.8825 44.7986 40.8825 50.2331C40.8825 55.5457 42.9706 58.7614 46.5039 58.7614C49.9414 58.7614 52.0966 55.4199 52.0966 50.1743C52.0966 44.8618 49.9082 41.5199 46.4411 41.5199ZM49.2491 72.316C49.1969 72.2202 48.427 70.6282 48.3354 70.429C48.2502 70.2523 48.0373 70.2416 47.9595 70.4367C47.8711 70.6539 47.1118 72.1798 47.0608 72.2896C46.9755 72.4705 47.0715 72.5888 47.245 72.5888H49.0606C49.1936 72.5888 49.3257 72.4705 49.2491 72.3162C49.1969 72.2204 48.4269 70.6284 48.3354 70.4292C48.2501 70.2525 48.0372 70.2418 47.9595 70.4369C47.871 70.6541 47.1118 72.1801 47.0607 72.2898C46.9755 72.4708 47.0714 72.589 47.245 72.589H49.0605C49.1936 72.589 49.3256 72.4708 49.249 72.3164L49.2491 72.316ZM61.0716 69.0707H58.7577C58.5181 69.0707 58.2678 69.1547 58.2678 69.453V71.1407C58.2678 71.4059 58.5181 71.5603 58.7577 71.5603H61.0716C61.849 71.5603 62.4825 71.1514 62.4825 70.3155C62.4825 69.4796 61.8489 69.0707 61.0716 69.0707ZM46.4412 41.5195C43.0047 41.5195 40.8825 44.7982 40.8825 50.2327C40.8825 55.5453 42.9707 58.761 46.504 58.761C49.9415 58.761 52.0967 55.4195 52.0967 50.1739C52.0967 44.8614 49.9083 41.5195 46.4412 41.5195ZM66.9514 41.5195C63.514 41.5195 61.3875 44.7982 61.3875 50.2327C61.3875 55.5453 63.4811 58.761 67.0132 58.761C70.4474 58.761 72.6027 55.4195 72.6027 50.1739C72.6027 44.8614 70.4176 41.5195 66.9514 41.5195ZM86.6609 41.3278C86.6609 41.3278 85.9495 41.3757 85.6003 41.4311C84.251 41.6484 83.8496 42.0136 83.8496 43.6749V56.7788C83.8496 58.5656 84.9624 58.6721 86.5321 58.7604C90.3634 58.9776 92.5891 55.5743 92.5891 50.0702C92.5891 44.5627 90.3784 41.3281 86.6609 41.3281C86.6609 41.3281 85.9496 41.376 85.6003 41.4313C84.2511 41.6486 83.8497 42.0138 83.8497 43.6751V56.779C83.8497 58.5658 84.9625 58.6723 86.5321 58.7606C90.3635 58.9779 92.5892 55.5745 92.5892 50.0704C92.5892 44.5629 90.3785 41.3283 86.661 41.3283L86.6609 41.3278ZM66.9516 41.5199C63.5142 41.5199 61.3876 44.7987 61.3876 50.2331C61.3876 55.5457 63.4813 58.7614 67.0134 58.7614C70.4476 58.7614 72.6028 55.4199 72.6028 50.1744C72.6028 44.8618 70.4178 41.5199 66.9516 41.5199ZM61.0713 69.0703H58.7574C58.5178 69.0703 58.2675 69.1543 58.2675 69.4526V71.1404C58.2675 71.4055 58.5178 71.5599 58.7574 71.5599H61.0713C61.8487 71.5599 62.4822 71.151 62.4822 70.3151C62.4822 69.4792 61.8487 69.0703 61.0713 69.0703ZM46.4409 41.5199C43.0045 41.5199 40.8823 44.7987 40.8823 50.2332C40.8823 55.5457 42.9704 58.7615 46.5038 58.7615C49.9412 58.7615 52.0964 55.42 52.0964 50.1744C52.0964 44.8618 49.9081 41.5199 46.4409 41.5199ZM49.249 72.3161C49.1968 72.2202 48.4268 70.6283 48.3352 70.429C48.25 70.2524 48.0371 70.2417 47.9594 70.4367C47.8709 70.654 47.1117 72.1799 47.0606 72.2897C46.9754 72.4706 47.0713 72.5889 47.2449 72.5889H49.0604C49.1935 72.5889 49.3255 72.4706 49.2489 72.3163L49.249 72.3161ZM46.4409 41.5202C43.0044 41.5202 40.8822 44.7989 40.8822 50.2334C40.8822 55.546 42.9704 58.7617 46.5037 58.7617C49.9412 58.7617 52.0964 55.4202 52.0964 50.1746C52.0964 44.8621 49.908 41.5202 46.4409 41.5202ZM66.9511 41.5202C63.5137 41.5202 61.3872 44.7989 61.3872 50.2334C61.3872 55.546 63.4808 58.7617 67.0129 58.7617C70.4471 58.7617 72.6025 55.4202 72.6025 50.1746C72.6025 44.8621 70.4173 41.5202 66.9511 41.5202ZM86.6606 41.3285C86.6606 41.3285 85.9492 41.3764 85.6 41.4318C84.2507 41.6491 83.8493 42.0143 83.8493 43.6755V56.7794C83.8493 58.5663 84.9621 58.6728 86.5318 58.7611C90.3631 58.9783 92.5888 55.5749 92.5888 50.0709C92.5888 44.5634 90.3781 41.3287 86.6607 41.3287C86.6607 41.3287 85.9493 41.3766 85.6 41.432C84.2508 41.6493 83.8494 42.0145 83.8494 43.6757V56.7797C83.8494 58.5665 84.9622 58.673 86.5318 58.7613C90.3632 58.9785 92.5889 55.5752 92.5889 50.0711C92.5889 44.5636 90.3782 41.329 86.6608 41.329L86.6606 41.3285ZM66.9513 41.5206C63.5139 41.5206 61.3873 44.7994 61.3873 50.2338C61.3873 55.5464 63.481 58.7621 67.0131 58.7621C70.4473 58.7621 72.6025 55.4206 72.6025 50.1751C72.6025 44.8625 70.4175 41.5206 66.9513 41.5206ZM46.441 41.5206C43.0046 41.5206 40.8824 44.7994 40.8824 50.2338C40.8824 55.5464 42.9705 58.7621 46.5039 58.7621C49.9413 58.7621 52.0966 55.4206 52.0966 50.1751C52.0966 44.8625 49.9082 41.5206 46.441 41.5206C43.0046 41.5206 40.8824 44.7994 40.8824 50.2338C40.8824 55.5464 42.9705 58.7621 46.5039 58.7621C49.9413 58.7621 52.0966 55.4206 52.0966 50.1751C52.0966 44.8625 49.9082 41.5206 46.441 41.5206ZM66.9513 41.5206C63.5139 41.5206 61.3873 44.7994 61.3873 50.2338C61.3873 55.5464 63.481 58.7621 67.0131 58.7621C70.4473 58.7621 72.6025 55.4206 72.6025 50.1751C72.6025 44.8625 70.4175 41.5206 66.9513 41.5206ZM86.6608 41.329C86.6608 41.329 85.9494 41.3769 85.6001 41.4322C84.2509 41.6495 83.8495 42.0147 83.8495 43.676V56.7799C83.8495 58.5667 84.9623 58.6732 86.5319 58.7615C90.3633 58.9788 92.5889 55.5754 92.5889 50.0713C92.5889 44.5638 90.3783 41.3292 86.6609 41.3292C86.6609 41.3292 85.9495 41.3771 85.6002 41.4325C84.251 41.6497 83.8496 42.0149 83.8496 43.6762V56.7801C83.8496 58.5669 84.9624 58.6734 86.532 58.7617C90.3634 58.979 92.589 55.5756 92.589 50.0715C92.589 44.564 90.3784 41.3294 86.6609 41.3294L86.6608 41.329ZM66.9514 41.521C63.5141 41.521 61.3875 44.7998 61.3875 50.2342C61.3875 55.5468 63.4811 58.7626 67.0133 58.7626C70.4475 58.7626 72.6027 55.421 72.6027 50.1755C72.6027 44.8629 70.4177 41.521 66.9514 41.521ZM46.4412 41.521C43.0048 41.521 40.8826 44.7998 40.8826 50.2342C40.8826 55.5468 42.9707 58.7626 46.5041 58.7626C49.9415 58.7626 52.0967 55.421 52.0967 50.1755C52.0967 44.8629 49.9084 41.521 46.4412 41.521Z" fill="#006F46"/>
</g>
<defs>
<clipPath id="clip0_0_121">
<rect width="129.625" height="129.625" fill="white" transform="translate(0.00012207 -25.4661)"/>
</clipPath>
</defs>
</svg>
